<?xml version="1.0" encoding="UTF-8"?><svg id="a" xmlns="http://www.w3.org/2000/svg" width="120mm" height="35mm" viewBox="0 0 340.1575 99.2126"><line x1="113.3858" x2="113.3858" y2="99.2126" fill="none" stroke="#000" stroke-miterlimit="10"/><g><path d="M138.0327,38.1399h-2.2827l-.9135-2.8673h-4.1762l-.8619,2.8673h-2.239l4.062-12.6607h2.2301l4.1812,12.6607Zm-3.8744-5.0093l-1.4407-4.698-1.4129,4.698h2.8537Z"/><path d="M138.4239,35.5315l2.0037-.3711c.1738,.9615,.7119,1.4423,1.6145,1.4423,.4796,0,.839-.0924,1.0763-.2767,.2363-.1843,.3555-.423,.3555-.717,0-.2016-.0526-.3602-.1559-.4753-.1102-.1151-.3277-.2159-.6533-.3019-1.6413-.4348-2.6849-.8484-3.1307-1.2407-.555-.4907-.8331-1.1627-.8331-2.017,0-.8538,.2721-1.5382,.8162-2.0516,.5431-.5134,1.3335-.7703,2.3691-.7703,.9889,0,1.7406,.1912,2.2559,.5742,.5143,.3829,.8758,1.0006,1.0843,1.8524l-1.8826,.4235c-.1678-.7372-.6424-1.1053-1.4238-1.1053-.4915,0-.841,.0707-1.0495,.212s-.3128,.3246-.3128,.5495c0,.2021,.0953,.3691,.287,.502,.1906,.1384,.7834,.3479,1.7773,.6275,1.116,.3148,1.8736,.6937,2.2738,1.1375,.3942,.4437,.5908,1.0342,.5908,1.7714,0,.8869-.3048,1.6187-.9155,2.1949-.6097,.5761-1.4526,.8642-2.529,.8642-.978,0-1.7763-.2401-2.3949-.7209-.6196-.4808-1.0267-1.1819-1.2233-2.1034Z"/><path d="M146.5281,35.5315l2.0037-.3711c.1738,.9615,.7119,1.4423,1.6145,1.4423,.4796,0,.839-.0924,1.0763-.2767,.2363-.1843,.3555-.423,.3555-.717,0-.2016-.0526-.3602-.1559-.4753-.1102-.1151-.3277-.2159-.6533-.3019-1.6413-.4348-2.6849-.8484-3.1307-1.2407-.555-.4907-.8331-1.1627-.8331-2.017,0-.8538,.2721-1.5382,.8162-2.0516,.5431-.5134,1.3335-.7703,2.3691-.7703,.9889,0,1.7406,.1912,2.2559,.5742,.5143,.3829,.8758,1.0006,1.0843,1.8524l-1.8826,.4235c-.1678-.7372-.6424-1.1053-1.4238-1.1053-.4915,0-.841,.0707-1.0495,.212s-.3128,.3246-.3128,.5495c0,.2021,.0953,.3691,.287,.502,.1906,.1384,.7834,.3479,1.7773,.6275,1.116,.3148,1.8736,.6937,2.2738,1.1375,.3942,.4437,.5908,1.0342,.5908,1.7714,0,.8869-.3048,1.6187-.9155,2.1949-.6097,.5761-1.4526,.8642-2.529,.8642-.978,0-1.7763-.2401-2.3949-.7209-.6196-.4808-1.0267-1.1819-1.2233-2.1034Z"/><path d="M154.8677,33.4241c0-.8998,.1787-1.7185,.5372-2.4567,.3594-.7387,.8271-1.2921,1.406-1.6612,.5789-.3696,1.2292-.5539,1.9521-.5539,1.2153,0,2.1695,.4743,2.8636,1.423,.695,.9492,1.0416,2.058,1.0416,3.3269,0,.9457-.1807,1.7996-.5421,2.561s-.836,1.3341-1.4229,1.7175c-.5878,.3834-1.2312,.5751-1.9312,.5751-1.122,0-2.0534-.4269-2.7941-1.2802-.7407-.8538-1.1101-2.0708-1.1101-3.6515Zm2.0474,.13c0,.9299,.1827,1.633,.5481,2.1094s.8063,.7145,1.3216,.7145c.5044,0,.9363-.2396,1.2958-.7189,.3604-.4793,.5401-1.1869,.5401-2.1222,0-.9126-.1827-1.6083-.5481-2.0876s-.8033-.7194-1.3136-.7194c-.5044,0-.9383,.2401-1.3007,.7194s-.5431,1.1809-.5431,2.1049Z"/><path d="M170.8328,31.6715l-1.97,.4319c-.145-.9615-.6017-1.4423-1.3702-1.4423-.4945,0-.8926,.2075-1.1955,.6236s-.4538,1.1172-.4538,2.1049c0,1.0915,.1509,1.8623,.4528,2.3129s.705,.6755,1.2094,.6755c.3773,0,.6871-.128,.9314-.3839,.2433-.2564,.417-.7095,.5223-1.3603l1.969,.4057c-.4041,2.2112-1.5698,3.3165-3.4971,3.3165-1.2312,0-2.1457-.4674-2.7415-1.4013-.5958-.9344-.8936-2.0595-.8936-3.3748,0-1.5742,.3366-2.7725,1.0118-3.5947,.6752-.8217,1.5599-1.2328,2.6541-1.2328,.8867,0,1.6085,.2332,2.1675,.6997,.559,.4659,.9602,1.2061,1.2034,2.2196Z"/><path d="M172.3431,27.7245v-2.2453h2.0047v2.2453h-2.0047Zm0,10.4154v-9.1717h2.0047v9.1717h-2.0047Z"/><path d="M177.8885,31.7575l-1.8141-.3973c.2194-.927,.5828-1.593,1.0892-1.9992,.5064-.4057,1.2332-.6087,2.1824-.6087,.844,0,1.4894,.1181,1.9352,.3543,.4448,.2367,.7636,.5579,.9542,.964s.286,1.1454,.286,2.2171l-.0169,2.8352c0,.7955,.0318,1.388,.0953,1.7768s.1827,.8024,.3555,1.2402h-1.9779l-.2601-1.0021c-.3416,.4032-.708,.7071-1.0982,.9111-.3902,.2046-.8053,.3068-1.2451,.3068-.7348,0-1.3365-.2466-1.8051-.7392-.4687-.4931-.703-1.1488-.703-1.9676,0-.5193,.0953-.9719,.287-1.3578,.1906-.3864,.4597-.6947,.8063-.9255,.3475-.2308,.9026-.4353,1.6661-.6142,.9264-.213,1.5708-.4121,1.9352-.5969,0-.5094-.0357-.8435-.1082-1.0031-.0725-.1591-.2055-.2891-.3992-.3904-.1936-.1018-.4677-.1522-.8202-.1522-.3584,0-.6404,.0805-.846,.2416-.2055,.1616-.3714,.4635-.4984,.9067Zm2.6719,1.9779c-.2542,.1038-.6504,.2253-1.1885,.3637-.6186,.1616-1.0237,.3409-1.2143,.5371-.1916,.1967-.287,.4506-.287,.7624,0,.3523,.1052,.6483,.3167,.8879s.4756,.3592,.7943,.3592c.283,0,.564-.0964,.841-.29,.278-.1937,.4706-.423,.5779-.6888,.1062-.2653,.1599-.7476,.1599-1.4463v-.4852Z"/><path d="M183.6931,38.1399v-1.8915l2.8338-3.9495c.4657-.6423,.8082-1.0989,1.0267-1.3707-.2314,.0173-.5382,.0292-.9194,.0346l-2.664,.0173v-2.012h6.2484v1.7185l-2.8904,4.0414-1.0148,1.339c.555-.04,.8996-.0603,1.0326-.0603h3.0979v2.1331h-6.7509Z"/><path d="M191.7884,27.7245v-2.2453h2.0047v2.2453h-2.0047Zm0,10.4154v-9.1717h2.0047v9.1717h-2.0047Z"/><path d="M195.3738,33.4241c0-.8998,.1787-1.7185,.5372-2.4567,.3594-.7387,.8271-1.2921,1.406-1.6612,.5789-.3696,1.2292-.5539,1.9521-.5539,1.2153,0,2.1695,.4743,2.8636,1.423,.695,.9492,1.0416,2.058,1.0416,3.3269,0,.9457-.1807,1.7996-.5421,2.561s-.836,1.3341-1.4229,1.7175c-.5878,.3834-1.2312,.5751-1.9312,.5751-1.122,0-2.0534-.4269-2.7941-1.2802-.7407-.8538-1.1101-2.0708-1.1101-3.6515Zm2.0474,.13c0,.9299,.1827,1.633,.5481,2.1094s.8063,.7145,1.3216,.7145c.5044,0,.9363-.2396,1.2958-.7189,.3604-.4793,.5401-1.1869,.5401-2.1222,0-.9126-.1827-1.6083-.5481-2.0876s-.8033-.7194-1.3136-.7194c-.5044,0-.9383,.2401-1.3007,.7194s-.5431,1.1809-.5431,2.1049Z"/><path d="M211.617,38.1399h-2.0047v-4.6862c0-.9398-.0377-1.5649-.1122-1.8762-.0755-.3113-.2165-.5504-.421-.7179-.2055-.167-.4389-.2505-.699-.2505-.3356,0-.6394,.1082-.9105,.3241-.2721,.2164-.4637,.5144-.5729,.8948-.1102,.3805-.1648,1.0979-.1648,2.1529v4.159h-2.0047v-9.1717h1.8568v1.3386c.3296-.5183,.702-.9067,1.115-1.1661,.414-.2589,.8718-.3884,1.3752-.3884,.5848,0,1.0773,.1512,1.4795,.4536,.4021,.3029,.6802,.6918,.8331,1.1671,.1539,.4758,.2304,1.1627,.2304,2.0619v5.705Z"/><path d="M218.0382,35.2296l1.9868,.4057c-.2671,.9215-.6811,1.6054-1.2431,2.0511-.561,.4467-1.2451,.6695-2.0494,.6695-1.118,0-1.9819-.3721-2.5895-1.1162-.7179-.8652-1.0773-2.0763-1.0773-3.6337,0-1.5342,.3614-2.7626,1.0843-3.6856,.6136-.7787,1.406-1.1681,2.378-1.1681,1.0813,0,1.9292,.3978,2.5419,1.1938,.706,.9111,1.0594,2.2546,1.0594,4.031l-.0089,.2767h-5.0073c.0119,.7283,.1757,1.2916,.4925,1.6904,.3157,.3988,.697,.5979,1.1438,.5979,.6444,0,1.0733-.4373,1.2888-1.3124Zm.1033-2.4617c-.0169-.7165-.1708-1.2555-.4597-1.6167-.2889-.3617-.6335-.542-1.0326-.542-.422,0-.7775,.1878-1.0674,.5638-.2949,.3815-.4399,.9131-.4339,1.595h2.9937Z"/><path d="M225.8386,38.1399v-12.6607h2.0484l4.2696,8.4548v-8.4548h1.961v12.6607h-2.1179l-4.2001-8.2562v8.2562h-1.961Z"/><path d="M237.8142,31.7575l-1.8141-.3973c.2194-.927,.5828-1.593,1.0892-1.9992,.5064-.4057,1.2332-.6087,2.1824-.6087,.844,0,1.4894,.1181,1.9352,.3543,.4448,.2367,.7636,.5579,.9542,.964s.286,1.1454,.286,2.2171l-.0169,2.8352c0,.7955,.0318,1.388,.0953,1.7768s.1827,.8024,.3555,1.2402h-1.9779l-.2601-1.0021c-.3416,.4032-.708,.7071-1.0982,.9111-.3902,.2046-.8053,.3068-1.2451,.3068-.7348,0-1.3365-.2466-1.8051-.7392-.4687-.4931-.703-1.1488-.703-1.9676,0-.5193,.0953-.9719,.287-1.3578,.1906-.3864,.4597-.6947,.8063-.9255,.3475-.2308,.9026-.4353,1.6661-.6142,.9264-.213,1.5708-.4121,1.9352-.5969,0-.5094-.0357-.8435-.1082-1.0031-.0725-.1591-.2055-.2891-.3992-.3904-.1936-.1018-.4677-.1522-.8202-.1522-.3584,0-.6404,.0805-.846,.2416-.2055,.1616-.3714,.4635-.4984,.9067Zm2.6719,1.9779c-.2542,.1038-.6504,.2253-1.1885,.3637-.6186,.1616-1.0237,.3409-1.2143,.5371-.1916,.1967-.287,.4506-.287,.7624,0,.3523,.1052,.6483,.3167,.8879s.4756,.3592,.7943,.3592c.283,0,.564-.0964,.841-.29,.278-.1937,.4706-.423,.5779-.6888,.1062-.2653,.1599-.7476,.1599-1.4463v-.4852Z"/><path d="M243.6198,38.1399v-1.8915l2.8338-3.9495c.4657-.6423,.8082-1.0989,1.0267-1.3707-.2314,.0173-.5382,.0292-.9194,.0346l-2.664,.0173v-2.012h6.2484v1.7185l-2.8904,4.0414-1.0148,1.339c.555-.04,.8996-.0603,1.0326-.0603h3.0979v2.1331h-6.7509Z"/><path d="M251.7141,27.7245v-2.2453h2.0047v2.2453h-2.0047Zm0,10.4154v-9.1717h2.0047v9.1717h-2.0047Z"/><path d="M255.2996,33.4241c0-.8998,.1787-1.7185,.5372-2.4567,.3594-.7387,.8271-1.2921,1.406-1.6612,.5789-.3696,1.2292-.5539,1.9521-.5539,1.2153,0,2.1695,.4743,2.8636,1.423,.695,.9492,1.0416,2.058,1.0416,3.3269,0,.9457-.1807,1.7996-.5421,2.561s-.836,1.3341-1.4229,1.7175c-.5878,.3834-1.2312,.5751-1.9312,.5751-1.122,0-2.0534-.4269-2.7941-1.2802-.7407-.8538-1.1101-2.0708-1.1101-3.6515Zm2.0474,.13c0,.9299,.1827,1.633,.5481,2.1094s.8063,.7145,1.3216,.7145c.5044,0,.9363-.2396,1.2958-.7189,.3604-.4793,.5401-1.1869,.5401-2.1222,0-.9126-.1827-1.6083-.5481-2.0876s-.8033-.7194-1.3136-.7194c-.5044,0-.9383,.2401-1.3007,.7194s-.5431,1.1809-.5431,2.1049Z"/><path d="M271.5427,38.1399h-2.0047v-4.6862c0-.9398-.0377-1.5649-.1122-1.8762-.0755-.3113-.2165-.5504-.421-.7179-.2055-.167-.4389-.2505-.699-.2505-.3356,0-.6394,.1082-.9105,.3241-.2721,.2164-.4637,.5144-.5729,.8948-.1102,.3805-.1648,1.0979-.1648,2.1529v4.159h-2.0047v-9.1717h1.8568v1.3386c.3296-.5183,.702-.9067,1.115-1.1661,.414-.2589,.8718-.3884,1.3752-.3884,.5848,0,1.0773,.1512,1.4795,.4536,.4021,.3029,.6802,.6918,.8331,1.1671,.1539,.4758,.2304,1.1627,.2304,2.0619v5.705Z"/><path d="M275.0666,31.7575l-1.8141-.3973c.2194-.927,.5828-1.593,1.0892-1.9992,.5064-.4057,1.2332-.6087,2.1824-.6087,.844,0,1.4894,.1181,1.9352,.3543,.4448,.2367,.7636,.5579,.9542,.964s.286,1.1454,.286,2.2171l-.0169,2.8352c0,.7955,.0318,1.388,.0953,1.7768s.1827,.8024,.3555,1.2402h-1.9779l-.2601-1.0021c-.3416,.4032-.708,.7071-1.0982,.9111-.3902,.2046-.8053,.3068-1.2451,.3068-.7348,0-1.3365-.2466-1.8051-.7392-.4687-.4931-.703-1.1488-.703-1.9676,0-.5193,.0953-.9719,.287-1.3578,.1906-.3864,.4597-.6947,.8063-.9255,.3475-.2308,.9026-.4353,1.6661-.6142,.9264-.213,1.5708-.4121,1.9352-.5969,0-.5094-.0357-.8435-.1082-1.0031-.0725-.1591-.2055-.2891-.3992-.3904-.1936-.1018-.4677-.1522-.8202-.1522-.3584,0-.6404,.0805-.846,.2416-.2055,.1616-.3714,.4635-.4984,.9067Zm2.6719,1.9779c-.2542,.1038-.6504,.2253-1.1885,.3637-.6186,.1616-1.0237,.3409-1.2143,.5371-.1916,.1967-.287,.4506-.287,.7624,0,.3523,.1052,.6483,.3167,.8879s.4756,.3592,.7943,.3592c.283,0,.564-.0964,.841-.29,.278-.1937,.4706-.423,.5779-.6888,.1062-.2653,.1599-.7476,.1599-1.4463v-.4852Z"/><path d="M281.6775,38.1399v-12.6607h2.0047v12.6607h-2.0047Z"/><path d="M290.1213,35.2296l1.9868,.4057c-.2671,.9215-.6811,1.6054-1.2431,2.0511-.561,.4467-1.2451,.6695-2.0494,.6695-1.118,0-1.9819-.3721-2.5895-1.1162-.7179-.8652-1.0773-2.0763-1.0773-3.6337,0-1.5342,.3614-2.7626,1.0843-3.6856,.6136-.7787,1.406-1.1681,2.378-1.1681,1.0813,0,1.9292,.3978,2.5419,1.1938,.706,.9111,1.0594,2.2546,1.0594,4.031l-.0089,.2767h-5.0073c.0119,.7283,.1757,1.2916,.4925,1.6904,.3157,.3988,.697,.5979,1.1438,.5979,.6444,0,1.0733-.4373,1.2888-1.3124Zm.1033-2.4617c-.0169-.7165-.1708-1.2555-.4597-1.6167-.2889-.3617-.6335-.542-1.0326-.542-.422,0-.7775,.1878-1.0674,.5638-.2949,.3815-.4399,.9131-.4339,1.595h2.9937Z"/><path d="M296.8463,38.1399l3.6053-6.5895-3.2756-6.0712h2.4605l2.0673,3.7874,2.0782-3.7874h2.4356l-3.2747,6.0564,3.6043,6.6043h-2.5399l-2.3155-4.2914-2.3205,4.2914h-2.525Z"/><path d="M306.565,38.1399l3.6053-6.5895-3.2756-6.0712h2.4605l2.0673,3.7874,2.0782-3.7874h2.4356l-3.2747,6.0564,3.6043,6.6043h-2.5399l-2.3155-4.2914-2.3205,4.2914h-2.525Z"/><path d="M316.2837,38.1399l3.6053-6.5895-3.2756-6.0712h2.4605l2.0673,3.7874,2.0782-3.7874h2.4356l-3.2747,6.0564,3.6043,6.6043h-2.5399l-2.3155-4.2914-2.3205,4.2914h-2.525Z"/><path d="M128.0131,52.2879l1.7624-.2065c.1986,1.3865,.848,2.0802,1.9491,2.0802,.5451,0,.9741-.1423,1.2868-.4259,.3118-.2836,.4687-.6354,.4687-1.0544,0-.2471-.0546-.4566-.1638-.6285-.1092-.1729-.275-.3143-.4984-.4259-.2234-.1107-.7636-.2975-1.6214-.5583-.7685-.2312-1.3315-.4823-1.688-.7535-.3575-.2713-.6414-.6275-.8519-1.0688-.2105-.4417-.3157-.9161-.3157-1.424,0-.5919,.135-1.1241,.4051-1.5975s.6434-.8311,1.119-1.0727c.4766-.2416,1.0634-.3627,1.7624-.3627,1.0515,0,1.8726,.2841,2.4624,.8514,.5898,.5677,.9026,1.3796,.9373,2.4355l-1.8081,.0964c-.0784-.5821-.2502-.9892-.5123-1.2215-.2631-.2317-.6375-.3479-1.123-.3479-.4865,0-.8609,.1008-1.124,.3024-.2621,.2021-.3942,.4531-.3942,.753,0,.295,.1192,.5435,.3584,.7451,.2383,.2016,.7864,.4235,1.6443,.6656,.9065,.2619,1.5629,.5371,1.966,.8257,.4041,.2886,.7129,.6611,.9254,1.1177,.2135,.4561,.3197,1.0105,.3197,1.6617,0,.9418-.2909,1.7343-.8738,2.3757s-1.4934,.9615-2.7335,.9615c-2.1914,0-3.4107-1.2412-3.6589-3.7236Z"/><path d="M140.5537,53.3325l1.7029,.3479c-.2284,.7896-.5828,1.3756-1.0644,1.7581-.4826,.3824-1.0674,.5732-1.7575,.5732-.9592,0-1.6989-.3182-2.2192-.9566-.6166-.7412-.9234-1.7798-.9234-3.1149,0-1.3148,.3098-2.3678,.9294-3.1589,.5253-.6671,1.2044-1.0011,2.0375-1.0011,.9274,0,1.6542,.3409,2.1795,1.0233,.6047,.7807,.9075,1.9325,.9075,3.4548l-.007,.2372h-4.2924c.0099,.6246,.1509,1.1078,.422,1.4487,.2711,.3419,.5977,.5129,.981,.5129,.5521,0,.9194-.3745,1.1041-1.1246Zm.0894-2.1099c-.0149-.6147-.147-1.0767-.3942-1.3865-.2482-.3093-.5431-.4645-.8857-.4645-.3614,0-.6672,.1611-.9145,.4832-.2532,.3271-.3773,.7827-.3723,1.3677h2.5667Z"/><path d="M143.045,55.8267v-1.6207l2.4287-3.3857c.3992-.5504,.6931-.9423,.8797-1.175-.1976,.0148-.4607,.0247-.7874,.0296l-2.2837,.0148v-1.7245h5.3558v1.473l-2.4773,3.4642-.8698,1.1473c.4756-.0346,.7705-.0514,.8847-.0514h2.6561v1.8282h-5.7867Z"/><path d="M149.9835,46.8991v-1.9246h1.7187v1.9246h-1.7187Zm0,8.9277v-7.8614h1.7187v7.8614h-1.7187Z"/><path d="M153.0566,51.7849c0-.7713,.1539-1.4734,.4607-2.1064,.3078-.6325,.7089-1.1073,1.2054-1.4235,.4955-.3167,1.0535-.4748,1.6731-.4748,1.0416,0,1.8597,.4067,2.4545,1.22s.8926,1.764,.8926,2.851c0,.8113-.1549,1.5426-.4647,2.1958-.3098,.6522-.7169,1.1434-1.2203,1.4715-.5024,.3291-1.0545,.4931-1.6542,.4931-.9621,0-1.7604-.3656-2.3949-1.0969-.6355-.7323-.9522-1.7749-.9522-3.1297Zm1.7555,.1107c0,.7975,.1559,1.4003,.4697,1.8085,.3128,.4081,.6911,.6127,1.1329,.6127,.4319,0,.8023-.2056,1.1111-.6167,.3078-.4101,.4617-1.0169,.4617-1.8193,0-.7817-.1569-1.3781-.4697-1.7892-.3128-.4106-.6881-.6162-1.126-.6162-.4319,0-.8033,.2056-1.1141,.6162-.3108,.4111-.4657,1.0124-.4657,1.804Z"/><path d="M166.9793,55.8267h-1.7178v-4.0171c0-.8049-.0328-1.341-.0973-1.6078s-.1847-.4719-.3604-.6152-.3753-.2149-.5987-.2149c-.2879,0-.5481,.0929-.7814,.2782-.2323,.1853-.3962,.4407-.4905,.7669s-.141,.9413-.141,1.8455v3.5645h-1.7187v-7.8614h1.5917v1.1473c.283-.4442,.6017-.7772,.9562-.9996,.3545-.2219,.7477-.333,1.1786-.333,.5014,0,.9234,.1295,1.268,.3889s.5828,.5929,.7149,1.0006c.1311,.4076,.1966,.9966,.1966,1.767v4.8902Z"/><path d="M172.4841,53.3325l1.7029,.3479c-.2284,.7896-.5828,1.3756-1.0644,1.7581-.4826,.3824-1.0674,.5732-1.7575,.5732-.9592,0-1.6989-.3182-2.2192-.9566-.6166-.7412-.9234-1.7798-.9234-3.1149,0-1.3148,.3098-2.3678,.9294-3.1589,.5253-.6671,1.2044-1.0011,2.0375-1.0011,.9274,0,1.6542,.3409,2.1795,1.0233,.6047,.7807,.9075,1.9325,.9075,3.4548l-.007,.2372h-4.2924c.0099,.6246,.1509,1.1078,.422,1.4487,.2711,.3419,.5977,.5129,.981,.5129,.5521,0,.9194-.3745,1.1041-1.1246Zm.0894-2.1099c-.0149-.6147-.147-1.0767-.3942-1.3865-.2482-.3093-.5431-.4645-.8857-.4645-.3614,0-.6672,.1611-.9145,.4832-.2532,.3271-.3773,.7827-.3723,1.3677h2.5667Z"/><path d="M174.7519,56.0115l2.2162-11.2223h1.2868l-2.239,11.2223h-1.264Z"/><path d="M184.8747,51.8363l1.7475,.674c-.2731,1.2145-.7268,2.101-1.3613,2.6613s-1.4159,.84-2.3423,.84c-1.1657,0-2.11-.4467-2.8338-1.34-.8331-1.0307-1.2501-2.4231-1.2501-4.1748,0-1.8505,.42-3.2987,1.258-4.3452,.7298-.9077,1.7098-1.3623,2.941-1.3623,1.0028,0,1.8419,.3409,2.5161,1.0218,.4816,.4837,.8341,1.2017,1.0575,2.1543l-1.7853,.5178c-.1142-.587-.3416-1.0371-.6811-1.3509-.3406-.3133-.7417-.4699-1.2034-.4699-.6613,0-1.2004,.2861-1.6175,.8588-.417,.5722-.6255,1.5174-.6255,2.8352,0,1.3662,.2035,2.3386,.6097,2.9168,.4071,.5771,.9343,.8657,1.5847,.8657,.4756,0,.8877-.1838,1.2342-.5514,.3475-.3676,.5977-.9517,.7516-1.7511Z"/><path d="M187.7532,51.7849c0-.7713,.1539-1.4734,.4607-2.1064,.3078-.6325,.7089-1.1073,1.2054-1.4235,.4955-.3167,1.0535-.4748,1.6731-.4748,1.0416,0,1.8597,.4067,2.4545,1.22s.8926,1.764,.8926,2.851c0,.8113-.1549,1.5426-.4647,2.1958-.3098,.6522-.7169,1.1434-1.2203,1.4715-.5024,.3291-1.0545,.4931-1.6542,.4931-.9621,0-1.7604-.3656-2.3949-1.0969-.6355-.7323-.9522-1.7749-.9522-3.1297Zm1.7555,.1107c0,.7975,.1559,1.4003,.4697,1.8085,.3128,.4081,.6911,.6127,1.1329,.6127,.4319,0,.8023-.2056,1.1111-.6167,.3078-.4101,.4617-1.0169,.4617-1.8193,0-.7817-.1569-1.3781-.4697-1.7892-.3128-.4106-.6881-.6162-1.126-.6162-.4319,0-.8033,.2056-1.1141,.6162-.3108,.4111-.4657,1.0124-.4657,1.804Z"/><path d="M195.6529,47.9654h1.5768v1.0732c.282-.4195,.5918-.7343,.9294-.9438,.3366-.21,.702-.3148,1.0932-.3148,.417,0,.7775,.1038,1.0823,.3108,.3048,.2075,.554,.5208,.7477,.9403,.287-.4195,.5958-.7328,.9254-.9403,.3296-.207,.6811-.3108,1.0525-.3108,.4418,0,.8221,.1052,1.1419,.3148,.3197,.21,.563,.5104,.7288,.9003,.1668,.3904,.2492,.9907,.2492,1.8006v5.0311h-1.7178v-4.4984c0-.7856-.0695-1.3079-.2085-1.5673s-.3714-.3894-.699-.3894c-.3823,0-.6891,.1818-.9224,.545s-.3495,1.0732-.3495,2.1301v3.78h-1.7178v-4.3136c0-.8543-.0477-1.4053-.142-1.6523-.1241-.3261-.3743-.4892-.7506-.4892-.2532,0-.4865,.084-.699,.252-.2135,.168-.3674,.4136-.4617,.7372s-.141,.8716-.141,1.6414v3.8244h-1.7178v-7.8614Z"/><path d="M206.8897,46.8991v-1.9246h1.7187v1.9246h-1.7187Zm0,8.9277v-7.8614h1.7187v7.8614h-1.7187Z"/><path d="M213.3239,47.9654v1.6578h-1.1677v3.1737c0,.6868,.0169,1.0851,.0516,1.1938,.0695,.1976,.2105,.2965,.424,.2965,.1589,0,.3872-.0662,.6841-.1996l.1489,1.6138c-.3972,.2065-.845,.3103-1.3464,.3103-.4359,0-.7854-.1038-1.0485-.3113s-.4389-.506-.5282-.8963c-.0695-.2866-.1043-.8696-.1043-1.7492v-3.4316h-.7884v-1.6578h.7884v-1.5624l1.7187-1.214v2.7764h1.1677Z"/><path d="M215.8012,50.3564l-1.5549-.3409c.1887-.794,.4994-1.3657,.9333-1.7136s1.0575-.5218,1.8707-.5218c.7238,0,1.2769,.1013,1.6592,.3039,.3813,.2026,.6543,.4778,.8182,.8262,.1628,.3484,.2453,.9818,.2453,1.9004l-.0149,2.4301c0,.6819,.0268,1.1898,.0814,1.5229,.0546,.334,.1569,.6878,.3048,1.0633h-1.6949l-.2234-.8588c-.2929,.3459-.6067,.6058-.9413,.7807-.3346,.1759-.6901,.2629-1.0674,.2629-.6295,0-1.1448-.2105-1.547-.6335-.4011-.423-.6027-.9843-.6027-1.6869,0-.4447,.0824-.8321,.2462-1.1631,.1628-.3311,.3942-.5959,.6911-.7935,.2979-.1976,.7735-.3736,1.4288-.5257,.7924-.1838,1.3454-.3538,1.6582-.5119,0-.4368-.0308-.7234-.0933-.8598-.0616-.1364-.1757-.248-.3416-.335-.1668-.087-.4011-.1304-.703-.1304-.3078,0-.5491,.0692-.7248,.2075-.1767,.1379-.3187,.3973-.4279,.7772Zm2.2907,1.6953c-.2184,.0889-.558,.1927-1.0187,.3113-.5312,.1384-.8777,.2925-1.0416,.4605s-.2453,.3864-.2453,.6532c0,.3024,.0904,.5554,.2711,.7609s.4081,.3083,.6811,.3083c.2423,0,.4836-.083,.7209-.249,.2383-.165,.4031-.3617,.4945-.59,.0923-.2273,.138-.6404,.138-1.2402v-.4151Z"/><path d="M224.4287,47.9654v1.6578h-1.1677v3.1737c0,.6868,.0169,1.0851,.0516,1.1938,.0695,.1976,.2105,.2965,.424,.2965,.1589,0,.3872-.0662,.6841-.1996l.1489,1.6138c-.3972,.2065-.845,.3103-1.3464,.3103-.4359,0-.7854-.1038-1.0485-.3113s-.4389-.506-.5282-.8963c-.0695-.2866-.1043-.8696-.1043-1.7492v-3.4316h-.7884v-1.6578h.7884v-1.5624l1.7187-1.214v2.7764h1.1677Z"/><path d="M225.224,51.7849c0-.7713,.1539-1.4734,.4607-2.1064,.3078-.6325,.7089-1.1073,1.2054-1.4235,.4955-.3167,1.0535-.4748,1.6731-.4748,1.0416,0,1.8597,.4067,2.4545,1.22s.8926,1.764,.8926,2.851c0,.8113-.1549,1.5426-.4647,2.1958-.3098,.6522-.7169,1.1434-1.2203,1.4715-.5024,.3291-1.0545,.4931-1.6542,.4931-.9621,0-1.7604-.3656-2.3949-1.0969-.6355-.7323-.9522-1.7749-.9522-3.1297Zm1.7555,.1107c0,.7975,.1559,1.4003,.4697,1.8085,.3128,.4081,.6911,.6127,1.1329,.6127,.4319,0,.8023-.2056,1.1111-.6167,.3078-.4101,.4617-1.0169,.4617-1.8193,0-.7817-.1569-1.3781-.4697-1.7892-.3128-.4106-.6881-.6162-1.126-.6162-.4319,0-.8033,.2056-1.1141,.6162-.3108,.4111-.4657,1.0124-.4657,1.804Z"/><path d="M242.6656,55.8267h-1.5917v-1.1552c-.2631,.4447-.5729,.7787-.9294,1.0031-.3575,.2253-.7248,.337-1.1011,.337-.7238,0-1.3553-.3597-1.8925-1.0791-.5382-.7194-.8072-1.7462-.8072-3.0813,0-1.3445,.2621-2.3589,.7874-3.0437,.5243-.6848,1.1707-1.0273,1.9382-1.0273,.3614,0,.699,.0914,1.0128,.2737,.3148,.1828,.6027,.4566,.8658,.8217v-3.901h1.7178v10.8522Zm-4.5664-4.1021c0,.7135,.0606,1.2442,.1817,1.593s.2939,.6117,.5193,.7876c.2244,.1749,.4786,.2629,.7606,.2629,.3753,0,.702-.2026,.979-.6087,.277-.4052,.416-1.0169,.416-1.8342,0-.9052-.135-1.5574-.4051-1.9557-.2691-.3988-.6116-.5979-1.0277-.5979-.3952,0-.7318,.1957-1.0088,.5865-.277,.3913-.415,.9803-.415,1.7665Z"/><path d="M244.3616,46.8991v-1.9246h1.7187v1.9246h-1.7187Zm0,8.9277v-7.8614h1.7187v7.8614h-1.7187Z"/><path d="M253.4507,55.8267v-4.5686l-3.2727-6.2836h2.1119l2.101,4.2914,2.0722-4.2914h2.0752l-3.2876,6.2975v4.5547h-1.8002Z"/><path d="M261.7813,55.8267v-4.5686l-3.2727-6.2836h2.1119l2.101,4.2914,2.0722-4.2914h2.0752l-3.2876,6.2975v4.5547h-1.8002Z"/><path d="M270.111,55.8267v-4.5686l-3.2727-6.2836h2.1119l2.101,4.2914,2.0722-4.2914h2.0752l-3.2876,6.2975v4.5547h-1.8002Z"/><path d="M128.03,70.6027l.9304-.0988c.0496,.4971,.1618,.8855,.3376,1.1622,.1757,.2777,.427,.501,.7526,.67,.3267,.168,.695,.253,1.1041,.253,.5858,0,1.0416-.1433,1.3663-.4279,.3247-.2856,.4865-.6562,.4865-1.1118,0-.2658-.0586-.4991-.1767-.6987-.1182-.1986-.2949-.3617-.5332-.4892-.2373-.1275-.7506-.3073-1.54-.5396-.702-.2075-1.2024-.416-1.5003-.6255-.2969-.2095-.5282-.4763-.6941-.7995-.1648-.3222-.2472-.6878-.2472-1.095,0-.7313,.2373-1.3302,.7119-1.7946,.4756-.4645,1.116-.6977,1.9223-.6977,.5531,0,1.0376,.1097,1.4526,.3271,.416,.2184,.7377,.5307,.9671,.9378s.3525,.8864,.3694,1.4379l-.9482,.086c-.0496-.588-.2264-1.0238-.5302-1.3074-.3038-.2846-.7308-.4259-1.2799-.4259-.558,0-.984,.1245-1.2769,.3736-.2939,.248-.4399,.5702-.4399,.9645,0,.3666,.1072,.6503,.3217,.8519,.2155,.2016,.698,.4052,1.4507,.6117,.7348,.2026,1.2511,.3785,1.548,.5267,.4548,.2312,.7973,.5346,1.0297,.9111,.2314,.3755,.3475,.8242,.3475,1.346,0,.5178-.1211,.9892-.3654,1.4142-.2443,.4259-.5759,.7491-.9949,.9704-.419,.2224-.9244,.333-1.5152,.333-.9214,0-1.6562-.2757-2.2033-.8262-.5481-.5514-.8321-1.2975-.8529-2.2393Z"/><path d="M138.8648,71.4042l.9413,.1423c-.1569,.6987-.4409,1.2264-.8519,1.5822s-.9204,.5336-1.5281,.5336c-.7645,0-1.3831-.2896-1.8558-.8667-.4736-.5781-.7099-1.4122-.7099-2.5012,0-1.1315,.2383-1.9942,.7159-2.5882s1.0813-.8914,1.8131-.8914c.698,0,1.2809,.2915,1.7475,.8756s.701,1.429,.701,2.5358l-.007,.2955h-4.0283c.0367,.7362,.2085,1.2916,.5143,1.6662s.6772,.5613,1.116,.5613c.6851,0,1.1627-.4487,1.4318-1.345Zm-3.0066-1.7946h3.0125c-.0417-.5682-.1638-.9912-.3654-1.2709-.2939-.4072-.6682-.6107-1.122-.6107-.4091,0-.7586,.169-1.0475,.5089-.2899,.339-.4488,.7965-.4776,1.3726Z"/><path d="M140.9658,73.5141v-6.551h.8251v.9932c.2105-.4605,.4031-.7659,.5789-.9161s.3733-.2253,.5918-.2253c.3058,0,.6186,.1196,.9363,.3577l-.3098,1.0297c-.2274-.1601-.4488-.2401-.6633-.2401-.1946,0-.3723,.0682-.5332,.2036s-.275,.3251-.3406,.5672c-.1162,.4239-.1738,.8746-.1738,1.3509v3.4301h-.9115Z"/><path d="M145.9383,73.5141l-2.0534-6.551h.9671l1.1617,3.9233c.1321,.4437,.2482,.8845,.3475,1.3203,.0784-.3459,.1906-.7609,.3356-1.2462l1.2044-3.9974h.9423l-2.0534,6.551h-.8519Z"/><path d="M149.637,65.7476v-1.2768h.9115v1.2768h-.9115Zm0,7.7665v-6.551h.9115v6.551h-.9115Z"/><path d="M151.4778,73.5141v-.9003l3.4425-4.787c-.3932,.0247-.7377,.0366-1.0356,.0366h-2.2023v-.9003h4.4195v.7333l-2.9321,4.1585-.565,.759c.4091-.0376,.7933-.0563,1.1528-.0563h2.4992v.9566h-4.7789Z"/><path d="M157.1553,65.7476v-1.2768h.9115v1.2768h-.9115Zm0,7.7665v-6.551h.9115v6.551h-.9115Z"/><path d="M159.1203,70.2381c0-1.1305,.2383-1.9844,.7159-2.5595,.4766-.5761,1.0813-.8637,1.8131-.8637,.7189,0,1.3196,.2876,1.8031,.8637,.4836,.5751,.7258,1.4062,.7258,2.4923,0,1.176-.2383,2.0516-.7129,2.6277-.4756,.5761-1.0813,.8637-1.8161,.8637-.7238,0-1.3255-.2896-1.8071-.8667-.4816-.5781-.7219-1.43-.7219-2.5575Zm.9353-.003c0,.8489,.1549,1.4794,.4657,1.8934,.3098,.4141,.6941,.6206,1.1528,.6206,.4289,0,.7983-.2095,1.1061-.6265,.3078-.418,.4617-1.0475,.4617-1.8875,0-.8439-.1549-1.4725-.4647-1.8865s-.6941-.6206-1.1528-.6206c-.4339,0-.8043,.2075-1.1101,.6236s-.4587,1.0436-.4587,1.8836Z"/><path d="M171.646,73.5141v-.8262c-.1648,.3162-.3783,.5574-.6384,.7244s-.5411,.25-.843,.25c-.6365,0-1.1865-.2994-1.6512-.8973-.4657-.5989-.698-1.4408-.698-2.5269,0-.7441,.1033-1.3756,.3098-1.8934s.4816-.9023,.8261-1.1533,.7268-.3765,1.1478-.3765c.3009,0,.5809,.0791,.838,.2372,.2582,.1581,.4716,.3795,.6404,.6631v-3.2444h.9244v9.0433h-.8559Zm-2.8944-3.2691c0,.8469,.1479,1.4764,.4438,1.8875,.2949,.4111,.6394,.6167,1.0326,.6167,.3882,0,.7248-.1976,1.0108-.5919,.285-.3953,.4279-.9912,.4279-1.7897,0-.9171-.143-1.5861-.4279-2.0071-.286-.422-.6454-.6325-1.0793-.6325-.3853,0-.7159,.2026-.9929,.6078s-.415,1.0416-.415,1.9093Z"/><path d="M173.9397,65.7476v-1.2768h.9115v1.2768h-.9115Zm0,7.7665v-6.551h.9115v6.551h-.9115Z"/><path d="M182.6416,73.5141v-.8262c-.1648,.3162-.3783,.5574-.6384,.7244s-.5411,.25-.843,.25c-.6365,0-1.1865-.2994-1.6512-.8973-.4657-.5989-.698-1.4408-.698-2.5269,0-.7441,.1033-1.3756,.3098-1.8934s.4816-.9023,.8261-1.1533,.7268-.3765,1.1478-.3765c.3009,0,.5809,.0791,.838,.2372,.2582,.1581,.4716,.3795,.6404,.6631v-3.2444h.9244v9.0433h-.8559Zm-2.8944-3.2691c0,.8469,.1479,1.4764,.4438,1.8875,.2949,.4111,.6394,.6167,1.0326,.6167,.3882,0,.7248-.1976,1.0108-.5919,.285-.3953,.4279-.9912,.4279-1.7897,0-.9171-.143-1.5861-.4279-2.0071-.286-.422-.6454-.6325-1.0793-.6325-.3853,0-.7159,.2026-.9929,.6078s-.415,1.0416-.415,1.9093Z"/><path d="M184.9353,65.7476v-1.2768h.9115v1.2768h-.9115Zm0,7.7665v-6.551h.9115v6.551h-.9115Z"/><path d="M186.8943,71.5524l.9105-.1729c.0536,.4625,.2006,.8064,.4389,1.0317,.2393,.2253,.557,.338,.9522,.338,.3962,0,.702-.0978,.9185-.2935,.2165-.1947,.3247-.4427,.3247-.7431,0-.2589-.0923-.4605-.279-.6048-.1281-.0978-.4379-.2214-.9294-.3696-.7109-.2184-1.1855-.4032-1.4258-.5554-.2393-.1522-.425-.3558-.558-.6107-.1321-.255-.1976-.5445-.1976-.8696,0-.5593,.1797-1.0139,.5392-1.3638,.3594-.3488,.8569-.5238,1.4934-.5238,.4011,0,.7536,.0721,1.0565,.2154,.3038,.1443,.5362,.338,.698,.5801,.1609,.2431,.2721,.59,.3346,1.0426l-.8926,.1482c-.0824-.7155-.4736-1.0732-1.1716-1.0732-.3962,0-.6921,.0781-.8867,.2362-.1936,.1581-.2909,.3597-.2909,.6048,0,.2421,.0933,.4328,.279,.5722,.1122,.081,.4428,.2125,.9939,.3923,.7576,.2392,1.2471,.4299,1.4695,.5722s.3952,.336,.5183,.5811c.1241,.2451,.1857,.5366,.1857,.8746,0,.6255-.1996,1.1325-.5987,1.5199-.3982,.3874-.9423,.5811-1.6324,.5811-1.2938,0-2.0434-.7036-2.25-2.1099Z"/><path d="M194.4872,72.5209l.1241,.9813c-.2522,.0652-.4796,.0978-.6821,.0978-.3177,0-.5739-.0623-.7685-.1878s-.3277-.2975-.4001-.5149c-.0715-.2184-.1082-.6522-.1082-1.3015v-3.7691h-.6692v-.8637h.6692v-1.6227l.9115-.6661v2.2887h.9234v.8637h-.9234v3.8304c0,.3538,.0268,.5821,.0804,.6848,.0784,.1482,.2254,.2224,.4399,.2224,.1033,0,.2373-.0148,.4031-.0435Z"/><path d="M195.348,73.5141v-6.551h.8251v.9932c.2105-.4605,.4031-.7659,.5789-.9161s.3733-.2253,.5918-.2253c.3058,0,.6186,.1196,.9363,.3577l-.3098,1.0297c-.2274-.1601-.4488-.2401-.6633-.2401-.1946,0-.3723,.0682-.5332,.2036s-.275,.3251-.3406,.5672c-.1162,.4239-.1738,.8746-.1738,1.3509v3.4301h-.9115Z"/><path d="M198.8123,65.7476v-1.2768h.9115v1.2768h-.9115Zm0,7.7665v-6.551h.9115v6.551h-.9115Z"/><path d="M201.9609,73.5141h-.8489v-9.0433h.9175v3.2256c.1936-.2955,.414-.5168,.6603-.6631,.2453-.1453,.5193-.2184,.8211-.2184,.421,0,.8043,.1255,1.1498,.3765,.3445,.251,.6206,.6305,.8271,1.1404,.2065,.5109,.3098,1.1295,.3098,1.8569,0,1.1108-.2333,1.9676-.701,2.5694-.4677,.6028-1.0148,.9042-1.6393,.9042-.3148,0-.5967-.081-.847-.2441-.2512-.1621-.4677-.4042-.6494-.7244v.8202Zm-.0139-3.3254c0,.6789,.0626,1.1869,.1867,1.5238,.1241,.338,.3009,.5949,.5282,.7718s.4806,.2648,.7586,.2648c.3763,0,.7109-.2105,1.0028-.6325,.2919-.421,.4389-1.0515,.4389-1.8905,0-.8598-.141-1.4912-.423-1.8944-.282-.4022-.6275-.6038-1.0376-.6038-.3773,0-.7139,.2105-1.0098,.6325-.2959,.421-.4448,1.0307-.4448,1.8282Z"/><path d="M210.4474,73.5141v-.9625c-.2115,.3706-.4587,.6483-.7447,.8331-.285,.1848-.6067,.2777-.9661,.2777-.426,0-.7894-.1146-1.0912-.3429s-.5034-.5168-.6047-.8667c-.1013-.3488-.1519-.8262-.1519-1.431v-4.0587h.9115v3.6327c0,.675,.0338,1.1266,.1023,1.3549s.1946,.4111,.3783,.5485c.1837,.1384,.3932,.2065,.6285,.2065,.4379,0,.7983-.1789,1.0793-.5366,.2393-.3083,.3594-.8736,.3594-1.6958v-3.5102h.9175v6.551h-.8182Z"/><path d="M212.2316,73.5141v-.9003l3.4425-4.787c-.3932,.0247-.7377,.0366-1.0356,.0366h-2.2023v-.9003h4.4195v.7333l-2.9321,4.1585-.565,.759c.4091-.0376,.7933-.0563,1.1528-.0563h2.4992v.9566h-4.7789Z"/><path d="M217.9092,65.7476v-1.2768h.9115v1.2768h-.9115Zm0,7.7665v-6.551h.9115v6.551h-.9115Z"/><path d="M219.8742,70.2381c0-1.1305,.2383-1.9844,.7159-2.5595,.4766-.5761,1.0813-.8637,1.8131-.8637,.7189,0,1.3196,.2876,1.8031,.8637,.4836,.5751,.7258,1.4062,.7258,2.4923,0,1.176-.2383,2.0516-.7129,2.6277-.4756,.5761-1.0813,.8637-1.8161,.8637-.7238,0-1.3255-.2896-1.8071-.8667-.4816-.5781-.7219-1.43-.7219-2.5575Zm.9353-.003c0,.8489,.1549,1.4794,.4657,1.8934,.3098,.4141,.6941,.6206,1.1528,.6206,.4289,0,.7983-.2095,1.1061-.6265,.3078-.418,.4617-1.0475,.4617-1.8875,0-.8439-.1549-1.4725-.4647-1.8865s-.6941-.6206-1.1528-.6206c-.4339,0-.8043,.2075-1.1101,.6236s-.4587,1.0436-.4587,1.8836Z"/><path d="M226.0094,73.5141v-6.551h.8251v.925c.1976-.3597,.4399-.6285,.7268-.8064s.6156-.2668,.987-.2668c.2879,0,.555,.0563,.8013,.17,.2453,.1127,.4428,.2609,.5938,.4437s.2631,.421,.3376,.7125c.0735,.2915,.1112,.7402,.1112,1.345v4.028h-.9115v-3.9895c0-.4813-.0417-.8341-.1241-1.0554-.0824-.2224-.2115-.3943-.3872-.5159s-.3793-.1828-.6106-.1828c-.4379,0-.7874,.1631-1.0475,.4882s-.3902,.8835-.3902,1.6741v3.5813h-.9115Z"/><path d="M235.4878,71.4042l.9413,.1423c-.1569,.6987-.4409,1.2264-.8519,1.5822s-.9204,.5336-1.5281,.5336c-.7645,0-1.3831-.2896-1.8558-.8667-.4736-.5781-.7099-1.4122-.7099-2.5012,0-1.1315,.2383-1.9942,.7159-2.5882s1.0813-.8914,1.8131-.8914c.698,0,1.2809,.2915,1.7475,.8756s.701,1.429,.701,2.5358l-.007,.2955h-4.0283c.0367,.7362,.2085,1.2916,.5143,1.6662s.6772,.5613,1.116,.5613c.6851,0,1.1627-.4487,1.4318-1.345Zm-3.0066-1.7946h3.0125c-.0417-.5682-.1638-.9912-.3654-1.2709-.2939-.4072-.6682-.6107-1.122-.6107-.4091,0-.7586,.169-1.0475,.5089-.2899,.339-.4488,.7965-.4776,1.3726Z"/><path d="M243.9972,72.7057c-.3058,.3172-.6245,.5554-.9552,.7155-.3296,.1611-.6732,.2411-1.0287,.2411-.562,0-1.0098-.169-1.3444-.506s-.5024-.7916-.5024-1.3638c0-.3775,.0784-.7135,.2353-1.005,.1569-.2925,.3723-.5208,.6444-.6848,.2731-.164,.6861-.2856,1.2402-.3637,.7437-.1087,1.2888-.2382,1.6363-.3894l.006-.2836c0-.4477-.0804-.7629-.2413-.9438-.2274-.2629-.5769-.3943-1.0475-.3943-.426,0-.7437,.088-.9552,.2629-.2105,.1759-.3654,.506-.4647,.9892l-.8986-.1482c.1281-.7036,.3872-1.2155,.7784-1.5357,.3902-.3212,.9492-.4813,1.676-.4813,.566,0,1.0108,.1057,1.3325,.3172,.3227,.2125,.5262,.4743,.6106,.7866,.0844,.3133,.1271,.7688,.1271,1.3697v1.4804c0,1.0367,.0199,1.6899,.0586,1.9587,.0397,.2698,.1172,.5317,.2323,.7866h-.9542c-.0953-.2263-.1569-.4951-.1857-.8084Zm-.0745-2.4795c-.3346,.164-.8331,.3044-1.4943,.419-.3843,.0662-.6523,.1413-.8053,.2253-.1529,.085-.2721,.2036-.3565,.3577s-.1271,.332-.1271,.5336c0,.3123,.0973,.5623,.2909,.7501,.1946,.1868,.4637,.2807,.8063,.2807,.3267,0,.6226-.085,.8897-.253,.2661-.169,.4657-.3943,.5977-.6759s.1986-.6918,.1986-1.2303v-.4072Z"/><path d="M246.2402,73.5141v-9.0433h.9115v9.0433h-.9115Z"/><path d="M248.5834,65.7476v-1.2768h.9115v1.2768h-.9115Zm0,7.7665v-6.551h.9115v6.551h-.9115Z"/><path d="M250.9019,73.5141v-6.551h.8182v.9131c.1807-.34,.414-.6018,.699-.7856s.5958-.2757,.9343-.2757c.3793,0,.7,.0968,.9621,.2915,.2621,.1937,.4488,.4773,.56,.8499,.2155-.3805,.4637-.6661,.7427-.8558,.28-.1907,.5898-.2856,.9304-.2856,.5183,0,.9264,.1749,1.2253,.5238,.2979,.3498,.4478,.9092,.4478,1.678v4.4974h-.9115v-4.1318c0-.4694-.0338-.8015-.1023-.9971s-.1797-.3469-.3336-.4536-.3267-.1611-.5173-.1611c-.3952,0-.7169,.1561-.9661,.4664-.2492,.3113-.3733,.7995-.3733,1.4665v3.8106h-.9115v-4.2612c0-.5435-.0834-.926-.2512-1.1483-.1668-.2224-.3972-.334-.6911-.334-.417,0-.7467,.168-.9889,.504-.2413,.335-.3624,.9477-.3624,1.8371v3.4025h-.9105Z"/><path d="M263.2548,71.4042l.9413,.1423c-.1569,.6987-.4409,1.2264-.8519,1.5822s-.9204,.5336-1.5281,.5336c-.7645,0-1.3831-.2896-1.8558-.8667-.4736-.5781-.7099-1.4122-.7099-2.5012,0-1.1315,.2383-1.9942,.7159-2.5882s1.0813-.8914,1.8131-.8914c.698,0,1.2809,.2915,1.7475,.8756s.701,1.429,.701,2.5358l-.007,.2955h-4.0283c.0367,.7362,.2085,1.2916,.5143,1.6662s.6772,.5613,1.116,.5613c.6851,0,1.1627-.4487,1.4318-1.345Zm-3.0066-1.7946h3.0125c-.0417-.5682-.1638-.9912-.3654-1.2709-.2939-.4072-.6682-.6107-1.122-.6107-.4091,0-.7586,.169-1.0475,.5089-.2899,.339-.4488,.7965-.4776,1.3726Z"/><path d="M265.3549,73.5141v-6.551h.8251v.925c.1976-.3597,.4399-.6285,.7268-.8064s.6156-.2668,.987-.2668c.2879,0,.555,.0563,.8013,.17,.2453,.1127,.4428,.2609,.5938,.4437s.2631,.421,.3376,.7125c.0735,.2915,.1112,.7402,.1112,1.345v4.028h-.9115v-3.9895c0-.4813-.0417-.8341-.1241-1.0554-.0824-.2224-.2115-.3943-.3872-.5159s-.3793-.1828-.6106-.1828c-.4379,0-.7874,.1631-1.0475,.4882s-.3902,.8835-.3902,1.6741v3.5813h-.9115Z"/><path d="M273.1781,72.5209l.1241,.9813c-.2522,.0652-.4796,.0978-.6821,.0978-.3177,0-.5739-.0623-.7685-.1878s-.3277-.2975-.4001-.5149c-.0715-.2184-.1082-.6522-.1082-1.3015v-3.7691h-.6692v-.8637h.6692v-1.6227l.9115-.6661v2.2887h.9234v.8637h-.9234v3.8304c0,.3538,.0268,.5821,.0804,.6848,.0784,.1482,.2254,.2224,.4399,.2224,.1033,0,.2373-.0148,.4031-.0435Z"/><path d="M277.5539,72.7057c-.3058,.3172-.6245,.5554-.9552,.7155-.3296,.1611-.6732,.2411-1.0287,.2411-.562,0-1.0098-.169-1.3444-.506s-.5024-.7916-.5024-1.3638c0-.3775,.0784-.7135,.2353-1.005,.1569-.2925,.3723-.5208,.6444-.6848,.2731-.164,.6861-.2856,1.2402-.3637,.7437-.1087,1.2888-.2382,1.6363-.3894l.006-.2836c0-.4477-.0804-.7629-.2413-.9438-.2274-.2629-.5769-.3943-1.0475-.3943-.426,0-.7437,.088-.9552,.2629-.2105,.1759-.3654,.506-.4647,.9892l-.8986-.1482c.1281-.7036,.3872-1.2155,.7784-1.5357,.3902-.3212,.9492-.4813,1.676-.4813,.566,0,1.0108,.1057,1.3325,.3172,.3227,.2125,.5262,.4743,.6106,.7866,.0844,.3133,.1271,.7688,.1271,1.3697v1.4804c0,1.0367,.0199,1.6899,.0586,1.9587,.0397,.2698,.1172,.5317,.2323,.7866h-.9542c-.0953-.2263-.1569-.4951-.1857-.8084Zm-.0745-2.4795c-.3346,.164-.8331,.3044-1.4943,.419-.3843,.0662-.6523,.1413-.8053,.2253-.1529,.085-.2721,.2036-.3565,.3577s-.1271,.332-.1271,.5336c0,.3123,.0973,.5623,.2909,.7501,.1946,.1868,.4637,.2807,.8063,.2807,.3267,0,.6226-.085,.8897-.253,.2661-.169,.4657-.3943,.5977-.6759s.1986-.6918,.1986-1.2303v-.4072Z"/><path d="M279.8277,73.5141v-6.551h.8251v.9932c.2105-.4605,.4031-.7659,.5789-.9161s.3733-.2253,.5918-.2253c.3058,0,.6186,.1196,.9363,.3577l-.3098,1.0297c-.2274-.1601-.4488-.2401-.6633-.2401-.1946,0-.3723,.0682-.5332,.2036s-.275,.3251-.3406,.5672c-.1162,.4239-.1738,.8746-.1738,1.3509v3.4301h-.9115Z"/><path d="M286.9817,71.4042l.9413,.1423c-.1569,.6987-.4409,1.2264-.8519,1.5822s-.9204,.5336-1.5281,.5336c-.7645,0-1.3831-.2896-1.8558-.8667-.4736-.5781-.7099-1.4122-.7099-2.5012,0-1.1315,.2383-1.9942,.7159-2.5882s1.0813-.8914,1.8131-.8914c.698,0,1.2809,.2915,1.7475,.8756s.701,1.429,.701,2.5358l-.007,.2955h-4.0283c.0367,.7362,.2085,1.2916,.5143,1.6662s.6772,.5613,1.116,.5613c.6851,0,1.1627-.4487,1.4318-1.345Zm-3.0066-1.7946h3.0125c-.0417-.5682-.1638-.9912-.3654-1.2709-.2939-.4072-.6682-.6107-1.122-.6107-.4091,0-.7586,.169-1.0475,.5089-.2899,.339-.4488,.7965-.4776,1.3726Z"/></g><path d="M98.7126,.5V98.7126H.5V.5H98.7126M99.2126,0H0V99.2126H99.2126V0h0Z"/><polygon points="99.2126 .3536 98.8592 0 49.6064 49.2527 .3536 0 0 .3534 49.2529 49.6063 0 98.8592 .3536 99.2126 49.6064 49.9598 98.8592 99.2126 99.2126 98.8589 49.9599 49.6063 99.2126 .3536"/></svg>