<?xml version="1.0" encoding="utf-8"?><!DOCTYPE svg PUBLIC "-//W3C//DTD SVG 1.1//EN" "http://www.w3.org/Graphics/SVG/1.1/DTD/svg11.dtd"><svg version="1.1" xmlns="http://www.w3.org/2000/svg" xmlns:xlink="http://www.w3.org/1999/xlink" width="24" height="24" viewBox="0 0 24 24" data-tags="volunteer_activism"><g fill="#fff" transform="scale(0.0234375 0.0234375)"><path d="M854 726q36 0 61 25t25 59l-342 128-300-84v-384h84l310 114q34 14 34 48 0 20-15 35t-37 15h-120l-74-28-14 40 88 32h300zM682 138q46-52 116-52 58 0 99 41t41 99q0 44-42 105t-84 102-130 121q-88-80-130-121t-84-102-42-105q0-58 42-99t100-41q68 0 114 52zM42 470h172v468h-172v-468z" /></g></svg>