<?xml version="1.0" encoding="UTF-8"?><svg id="a" xmlns="http://www.w3.org/2000/svg" width="185.3056mm" height="35mm" viewBox="0 0 525.2756 99.2126"><line x1="113.3858" x2="113.3858" y2="99.2126" fill="none" stroke="#000" stroke-miterlimit="10"/><g><path d="M135.8103,40.6426h-1.7988l-.7197-2.2695h-3.29l-.6787,2.2695h-1.7637l3.2002-10.0215h1.7568l3.2939,10.0215Zm-3.0527-3.9648l-1.1348-3.7188-1.1133,3.7188h2.248Z"/><path d="M136.118,38.5781l1.5791-.2939c.1367,.7612,.5605,1.1416,1.2715,1.1416,.3779,0,.6602-.0728,.8477-.2188,.1865-.146,.2803-.335,.2803-.5679,0-.1597-.041-.2847-.123-.376-.0869-.0913-.2578-.1709-.5146-.2393-1.293-.3438-2.1152-.6714-2.4658-.9819-.4375-.3882-.6562-.9204-.6562-1.5967,0-.6758,.2139-1.2173,.6426-1.6235,.4277-.4067,1.0498-.6099,1.8662-.6099,.7793,0,1.3711,.1514,1.7773,.4546,.4053,.3032,.6904,.792,.8545,1.4663l-1.4834,.335c-.1328-.5835-.5059-.875-1.1211-.875-.3877,0-.6631,.0562-.8271,.168s-.2461,.2568-.2461,.4351c0,.1597,.0752,.292,.2256,.3975,.1494,.1094,.6172,.2749,1.4004,.4966,.8789,.249,1.4756,.5488,1.791,.8999,.3105,.3516,.4658,.8188,.4658,1.4023,0,.7021-.2402,1.2812-.7217,1.7373-.4805,.4561-1.1445,.6841-1.9922,.6841-.7705,0-1.3994-.1904-1.8867-.5708-.4883-.3804-.8096-.9355-.9639-1.6646Z"/><path d="M142.5027,38.5781l1.5791-.2939c.1367,.7612,.5605,1.1416,1.2715,1.1416,.3779,0,.6602-.0728,.8477-.2188,.1865-.146,.2803-.335,.2803-.5679,0-.1597-.041-.2847-.123-.376-.0869-.0913-.2578-.1709-.5146-.2393-1.293-.3438-2.1152-.6714-2.4658-.9819-.4375-.3882-.6562-.9204-.6562-1.5967,0-.6758,.2139-1.2173,.6426-1.6235,.4277-.4067,1.0498-.6099,1.8662-.6099,.7793,0,1.3711,.1514,1.7773,.4546,.4053,.3032,.6904,.792,.8545,1.4663l-1.4834,.335c-.1328-.5835-.5059-.875-1.1211-.875-.3877,0-.6631,.0562-.8271,.168s-.2461,.2568-.2461,.4351c0,.1597,.0752,.292,.2256,.3975,.1494,.1094,.6172,.2749,1.4004,.4966,.8789,.249,1.4756,.5488,1.791,.8999,.3105,.3516,.4658,.8188,.4658,1.4023,0,.7021-.2402,1.2812-.7217,1.7373-.4805,.4561-1.1445,.6841-1.9922,.6841-.7705,0-1.3994-.1904-1.8867-.5708-.4883-.3804-.8096-.9355-.9639-1.6646Z"/><path d="M149.0721,36.9102c0-.7124,.1406-1.3608,.4238-1.9448,.2822-.5845,.6514-1.0229,1.1074-1.3149,.4551-.2925,.9678-.4385,1.5381-.4385,.957,0,1.709,.3755,2.2559,1.1265s.8203,1.6289,.8203,2.6333c0,.7485-.1426,1.4243-.4277,2.0269-.2842,.603-.6582,1.0562-1.1211,1.3594-.4619,.3037-.9697,.4556-1.5205,.4556-.8848,0-1.6182-.3379-2.2012-1.0137-.584-.6758-.875-1.6387-.875-2.8896Zm1.6133,.1025c0,.7358,.1436,1.2925,.4316,1.6699,.2871,.377,.6348,.5654,1.041,.5654,.3975,0,.7383-.1895,1.0215-.5693,.2832-.3789,.4248-.939,.4248-1.6797,0-.7222-.1445-1.2729-.4316-1.6523-.2881-.3794-.6328-.5693-1.0352-.5693-.3975,0-.7383,.1899-1.0244,.5693-.2852,.3794-.4277,.9346-.4277,1.666Z"/><path d="M161.6502,35.5225l-1.5518,.3418c-.1152-.7612-.4746-1.1416-1.0801-1.1416-.3896,0-.7031,.1646-.9414,.4937s-.3574,.8848-.3574,1.666c0,.8643,.1182,1.4746,.3564,1.8311,.2373,.3564,.5547,.5347,.9521,.5347,.2979,0,.542-.1016,.7344-.3042,.1914-.2026,.3291-.5615,.4111-1.0767l1.5518,.3213c-.3193,1.75-1.2373,2.625-2.7549,2.625-.9707,0-1.6914-.3696-2.1602-1.1094-.4697-.7397-.7041-1.6299-.7041-2.6709,0-1.2461,.2656-2.1948,.7969-2.8452,.5312-.6509,1.2285-.9761,2.0908-.9761,.6982,0,1.2676,.1846,1.708,.5537s.7568,.9546,.9482,1.7568Z"/><path d="M162.8396,32.3984v-1.7773h1.5791v1.7773h-1.5791Zm0,8.2441v-7.2598h1.5791v7.2598h-1.5791Z"/><path d="M167.2078,35.5908l-1.4287-.3145c.1729-.7339,.459-1.2612,.8574-1.5825,.3994-.3213,.9717-.4819,1.7197-.4819,.665,0,1.1729,.0938,1.5244,.2808,.3506,.187,.6016,.4414,.752,.7627,.1504,.3218,.2256,.9067,.2256,1.7549l-.0137,2.2441c0,.6299,.0244,1.0986,.0752,1.4062,.0498,.3081,.1436,.6353,.2803,.9819h-1.5586l-.2051-.793c-.2695,.3188-.5576,.5596-.8652,.7212s-.6348,.2427-.9805,.2427c-.5791,0-1.0527-.1948-1.4219-.5854-.3691-.3901-.5537-.9092-.5537-1.5571,0-.4106,.0752-.769,.2256-1.0747s.3623-.5498,.6357-.7324,.7109-.3447,1.3125-.4863c.7285-.1685,1.2373-.3262,1.5244-.4722,0-.4033-.0283-.668-.0859-.7939-.0566-.126-.1611-.229-.3145-.3091-.1523-.0806-.3682-.1206-.6455-.1206-.2832,0-.5049,.064-.667,.1914-.1611,.1274-.293,.3667-.3926,.7178Zm2.1055,1.5654c-.2012,.082-.5127,.1782-.9365,.2881-.4883,.1279-.8066,.2695-.957,.4248-.1504,.1558-.2256,.3569-.2256,.6035,0,.2788,.083,.5132,.249,.7026,.167,.1899,.375,.2847,.626,.2847,.2227,0,.4443-.0767,.6631-.2295,.2188-.1533,.3701-.335,.4541-.5454,.085-.21,.127-.5918,.127-1.145v-.3838Z"/><path d="M171.7811,40.6426v-1.4971l2.2324-3.126c.3672-.5083,.6367-.8701,.8086-1.085-.1816,.0137-.4238,.0229-.7246,.0273l-2.0977,.0137v-1.5928h4.9219v1.3604l-2.2773,3.1992-.7988,1.0596c.4375-.0317,.708-.0479,.8135-.0479h2.4404v1.6885h-5.3184Z"/><path d="M178.159,32.3984v-1.7773h1.5791v1.7773h-1.5791Zm0,8.2441v-7.2598h1.5791v7.2598h-1.5791Z"/><path d="M180.9822,36.9102c0-.7124,.1406-1.3608,.4238-1.9448,.2822-.5845,.6514-1.0229,1.1074-1.3149,.4551-.2925,.9678-.4385,1.5381-.4385,.957,0,1.709,.3755,2.2559,1.1265s.8203,1.6289,.8203,2.6333c0,.7485-.1426,1.4243-.4277,2.0269-.2842,.603-.6582,1.0562-1.1211,1.3594-.4619,.3037-.9697,.4556-1.5205,.4556-.8848,0-1.6182-.3379-2.2012-1.0137-.584-.6758-.875-1.6387-.875-2.8896Zm1.6133,.1025c0,.7358,.1436,1.2925,.4316,1.6699,.2871,.377,.6348,.5654,1.041,.5654,.3975,0,.7383-.1895,1.0215-.5693,.2832-.3789,.4248-.939,.4248-1.6797,0-.7222-.1445-1.2729-.4316-1.6523-.2881-.3794-.6328-.5693-1.0352-.5693-.3975,0-.7383,.1899-1.0244,.5693-.2852,.3794-.4277,.9346-.4277,1.666Z"/><path d="M193.7791,40.6426h-1.5791v-3.7095c0-.7437-.0303-1.2388-.0889-1.4849-.0596-.2466-.1699-.436-.332-.5684-.1611-.1318-.3447-.1982-.5498-.1982-.2646,0-.5039,.0854-.7178,.2568-.2148,.1709-.3652,.4072-.4512,.708-.0869,.3013-.1299,.8691-.1299,1.7041v3.292h-1.5791v-7.2598h1.4629v1.0596c.2598-.4102,.5527-.7178,.8779-.9229,.3262-.2051,.6875-.3076,1.084-.3076,.46,0,.8486,.1196,1.165,.3594,.3174,.2393,.5361,.5474,.6562,.9233,.1211,.3765,.1816,.9204,.1816,1.6318v4.5161Z"/><path d="M198.8377,38.3389l1.5654,.3213c-.21,.729-.5361,1.2705-.9795,1.6235-.4424,.353-.9805,.5298-1.6152,.5298-.8799,0-1.5605-.2944-2.0391-.8833-.5664-.6851-.8486-1.6436-.8486-2.8765,0-1.2144,.2842-2.1865,.8545-2.917,.4824-.6167,1.1074-.9248,1.873-.9248,.8516,0,1.5195,.3149,2.0029,.9448,.5557,.7212,.834,1.7847,.834,3.1904l-.0068,.2192h-3.9443c.0088,.5767,.1377,1.0225,.3867,1.3379,.249,.3159,.5498,.4736,.9023,.4736,.5068,0,.8457-.3462,1.0146-1.0391Zm.082-1.9482c-.0137-.5674-.1348-.9941-.3623-1.2803-.2285-.2856-.499-.4287-.8135-.4287-.333,0-.6133,.1489-.8408,.4463-.2324,.3018-.3467,.7227-.3418,1.2627h2.3584Z"/><path d="M204.9832,40.6426v-10.0215h1.6133l3.3633,6.6924v-6.6924h1.5449v10.0215h-1.668l-3.3086-6.5352v6.5352h-1.5449Z"/><path d="M214.4168,35.5908l-1.4287-.3145c.1729-.7339,.459-1.2612,.8574-1.5825,.3994-.3213,.9717-.4819,1.7197-.4819,.665,0,1.1729,.0938,1.5244,.2808,.3506,.187,.6016,.4414,.752,.7627,.1504,.3218,.2256,.9067,.2256,1.7549l-.0137,2.2441c0,.6299,.0244,1.0986,.0752,1.4062,.0498,.3081,.1436,.6353,.2803,.9819h-1.5586l-.2051-.793c-.2695,.3188-.5576,.5596-.8652,.7212s-.6348,.2427-.9805,.2427c-.5791,0-1.0527-.1948-1.4219-.5854-.3691-.3901-.5537-.9092-.5537-1.5571,0-.4106,.0752-.769,.2256-1.0747s.3623-.5498,.6357-.7324,.7109-.3447,1.3125-.4863c.7285-.1685,1.2373-.3262,1.5244-.4722,0-.4033-.0283-.668-.0859-.7939-.0566-.126-.1611-.229-.3145-.3091-.1523-.0806-.3682-.1206-.6455-.1206-.2832,0-.5049,.064-.667,.1914-.1611,.1274-.293,.3667-.3926,.7178Zm2.1055,1.5654c-.2012,.082-.5127,.1782-.9365,.2881-.4883,.1279-.8066,.2695-.957,.4248-.1504,.1558-.2256,.3569-.2256,.6035,0,.2788,.083,.5132,.249,.7026,.167,.1899,.375,.2847,.626,.2847,.2227,0,.4443-.0767,.6631-.2295,.2188-.1533,.3701-.335,.4541-.5454,.085-.21,.127-.5918,.127-1.145v-.3838Z"/><path d="M218.99,40.6426v-1.4971l2.2324-3.126c.3672-.5083,.6367-.8701,.8086-1.085-.1816,.0137-.4238,.0229-.7246,.0273l-2.0977,.0137v-1.5928h4.9219v1.3604l-2.2773,3.1992-.7988,1.0596c.4375-.0317,.708-.0479,.8135-.0479h2.4404v1.6885h-5.3184Z"/><path d="M225.368,32.3984v-1.7773h1.5791v1.7773h-1.5791Zm0,8.2441v-7.2598h1.5791v7.2598h-1.5791Z"/><path d="M228.1912,36.9102c0-.7124,.1406-1.3608,.4238-1.9448,.2822-.5845,.6514-1.0229,1.1074-1.3149,.4551-.2925,.9678-.4385,1.5381-.4385,.957,0,1.709,.3755,2.2559,1.1265s.8203,1.6289,.8203,2.6333c0,.7485-.1426,1.4243-.4277,2.0269-.2842,.603-.6582,1.0562-1.1211,1.3594-.4619,.3037-.9697,.4556-1.5205,.4556-.8848,0-1.6182-.3379-2.2012-1.0137-.584-.6758-.875-1.6387-.875-2.8896Zm1.6133,.1025c0,.7358,.1436,1.2925,.4316,1.6699,.2871,.377,.6348,.5654,1.041,.5654,.3975,0,.7383-.1895,1.0215-.5693,.2832-.3789,.4248-.939,.4248-1.6797,0-.7222-.1445-1.2729-.4316-1.6523-.2881-.3794-.6328-.5693-1.0352-.5693-.3975,0-.7383,.1899-1.0244,.5693-.2852,.3794-.4277,.9346-.4277,1.666Z"/><path d="M240.9881,40.6426h-1.5791v-3.7095c0-.7437-.0303-1.2388-.0889-1.4849-.0596-.2466-.1699-.436-.332-.5684-.1611-.1318-.3447-.1982-.5498-.1982-.2646,0-.5039,.0854-.7178,.2568-.2148,.1709-.3652,.4072-.4512,.708-.0869,.3013-.1299,.8691-.1299,1.7041v3.292h-1.5791v-7.2598h1.4629v1.0596c.2598-.4102,.5527-.7178,.8779-.9229,.3262-.2051,.6875-.3076,1.084-.3076,.46,0,.8486,.1196,1.165,.3594,.3174,.2393,.5361,.5474,.6562,.9233,.1211,.3765,.1816,.9204,.1816,1.6318v4.5161Z"/><path d="M243.7635,35.5908l-1.4287-.3145c.1729-.7339,.459-1.2612,.8574-1.5825,.3994-.3213,.9717-.4819,1.7197-.4819,.665,0,1.1729,.0938,1.5244,.2808,.3506,.187,.6016,.4414,.752,.7627,.1504,.3218,.2256,.9067,.2256,1.7549l-.0137,2.2441c0,.6299,.0244,1.0986,.0752,1.4062,.0498,.3081,.1436,.6353,.2803,.9819h-1.5586l-.2051-.793c-.2695,.3188-.5576,.5596-.8652,.7212s-.6348,.2427-.9805,.2427c-.5791,0-1.0527-.1948-1.4219-.5854-.3691-.3901-.5537-.9092-.5537-1.5571,0-.4106,.0752-.769,.2256-1.0747s.3623-.5498,.6357-.7324,.7109-.3447,1.3125-.4863c.7285-.1685,1.2373-.3262,1.5244-.4722,0-.4033-.0283-.668-.0859-.7939-.0566-.126-.1611-.229-.3145-.3091-.1523-.0806-.3682-.1206-.6455-.1206-.2832,0-.5049,.064-.667,.1914-.1611,.1274-.293,.3667-.3926,.7178Zm2.1055,1.5654c-.2012,.082-.5127,.1782-.9365,.2881-.4883,.1279-.8066,.2695-.957,.4248-.1504,.1558-.2256,.3569-.2256,.6035,0,.2788,.083,.5132,.249,.7026,.167,.1899,.375,.2847,.626,.2847,.2227,0,.4443-.0767,.6631-.2295,.2188-.1533,.3701-.335,.4541-.5454,.085-.21,.127-.5918,.127-1.145v-.3838Z"/><path d="M248.9725,40.6426v-10.0215h1.5791v10.0215h-1.5791Z"/><path d="M255.6238,38.3389l1.5654,.3213c-.21,.729-.5361,1.2705-.9795,1.6235-.4424,.353-.9805,.5298-1.6152,.5298-.8799,0-1.5605-.2944-2.0391-.8833-.5664-.6851-.8486-1.6436-.8486-2.8765,0-1.2144,.2842-2.1865,.8545-2.917,.4824-.6167,1.1074-.9248,1.873-.9248,.8516,0,1.5195,.3149,2.0029,.9448,.5557,.7212,.834,1.7847,.834,3.1904l-.0068,.2192h-3.9443c.0088,.5767,.1377,1.0225,.3867,1.3379,.249,.3159,.5498,.4736,.9023,.4736,.5068,0,.8457-.3462,1.0146-1.0391Zm.082-1.9482c-.0137-.5674-.1348-.9941-.3623-1.2803-.2285-.2856-.499-.4287-.8135-.4287-.333,0-.6133,.1489-.8408,.4463-.2324,.3018-.3467,.7227-.3418,1.2627h2.3584Z"/><path d="M260.9217,40.6426l2.8408-5.2158-2.5811-4.8057h1.9385l1.6289,2.998,1.6367-2.998h1.9189l-2.5801,4.7939,2.8398,5.2275h-2.001l-1.8242-3.3965-1.8281,3.3965h-1.9893Z"/><path d="M268.5779,40.6426l2.8408-5.2158-2.5811-4.8057h1.9385l1.6289,2.998,1.6367-2.998h1.9189l-2.5801,4.7939,2.8398,5.2275h-2.001l-1.8242-3.3965-1.8281,3.3965h-1.9893Z"/><path d="M276.2342,40.6426l2.8408-5.2158-2.5811-4.8057h1.9385l1.6289,2.998,1.6367-2.998h1.9189l-2.5801,4.7939,2.8398,5.2275h-2.001l-1.8242-3.3965-1.8281,3.3965h-1.9893Z"/><path d="M127.9168,51.8418l1.3887-.1641c.1562,1.0977,.668,1.6465,1.5352,1.6465,.4297,0,.7676-.1123,1.0137-.3369s.3691-.5029,.3691-.835c0-.1953-.043-.3613-.1289-.4971-.0859-.1367-.2168-.249-.3926-.3369s-.6016-.2354-1.2773-.4419c-.6055-.1831-1.0488-.3823-1.3301-.5967-.2812-.2148-.5049-.4966-.6709-.8462-.166-.3491-.249-.7251-.249-1.127,0-.4683,.1064-.8896,.3193-1.2646,.2129-.3745,.5068-.6577,.8818-.8486,.375-.1914,.8379-.2871,1.3887-.2871,.8281,0,1.4746,.2246,1.9395,.6738s.7109,1.0918,.7383,1.9277l-1.4238,.0762c-.0625-.4609-.1973-.7832-.4043-.9668s-.502-.2754-.8848-.2754-.6777,.0801-.8848,.2393c-.207,.1602-.3105,.3584-.3105,.5962,0,.2334,.0938,.4302,.2812,.5898,.1885,.1597,.6201,.3354,1.2959,.5269,.7148,.207,1.2314,.4248,1.5488,.6533,.3184,.2285,.5615,.5234,.7295,.8848s.252,.7988,.252,1.3145c0,.7461-.2295,1.373-.6885,1.8809s-1.1768,.7617-2.1533,.7617c-1.7266,0-2.6875-.9824-2.8828-2.9473Z"/><path d="M137.7957,52.668l1.3418,.2754c-.1807,.625-.46,1.0889-.8389,1.3916-.3799,.3027-.8408,.4541-1.3848,.4541-.7549,0-1.3379-.2529-1.748-.7578-.4854-.5869-.7275-1.4082-.7275-2.4648,0-1.041,.2441-1.8745,.7324-2.5005,.4141-.5283,.9492-.7925,1.6055-.7925,.7305,0,1.3027,.27,1.7168,.8101,.4766,.6182,.7148,1.5298,.7148,2.7339l-.0059,.1885h-3.3809c.0078,.4941,.1182,.876,.332,1.1465,.2129,.2705,.4707,.4062,.7725,.4062,.4346,0,.7246-.2969,.8701-.8906Zm.0703-1.6699c-.0117-.4863-.1152-.8521-.3105-1.0972s-.4277-.3677-.6973-.3677c-.2852,0-.5254,.1274-.7207,.3823-.1992,.2588-.2969,.6196-.293,1.0825h2.0215Z"/><path d="M139.7586,54.6426v-1.2832l1.9131-2.6797c.3154-.4355,.5459-.7456,.6934-.9297-.1562,.0117-.3633,.0195-.6211,.0234l-1.7979,.0117v-1.3652h4.2188v1.166l-1.9521,2.7422-.6846,.9082c.375-.0273,.6074-.041,.6973-.041h2.0918v1.4473h-4.5586Z"/><path d="M145.2254,47.5762v-1.5234h1.3535v1.5234h-1.3535Zm0,7.0664v-6.2227h1.3535v6.2227h-1.3535Z"/><path d="M147.6453,51.4434c0-.6108,.1211-1.1665,.3633-1.667,.2422-.501,.5586-.877,.9492-1.127,.3906-.251,.8301-.376,1.3184-.376,.8203,0,1.4648,.3218,1.9336,.9658,.4688,.6436,.7031,1.396,.7031,2.2568,0,.6416-.1221,1.2207-.3662,1.7373s-.5645,.9053-.9609,1.165-.8311,.3906-1.3037,.3906c-.7578,0-1.3867-.29-1.8867-.8691s-.75-1.4043-.75-2.4766Zm1.3828,.0879c0,.6309,.123,1.1074,.3701,1.4307,.2461,.3232,.5439,.4854,.8926,.4854,.3408,0,.6318-.1631,.875-.4883,.2422-.3252,.3643-.8047,.3643-1.4395,0-.6191-.124-1.0913-.3701-1.4165-.2471-.3252-.542-.4878-.8867-.4878-.3408,0-.6338,.1626-.8779,.4878-.2451,.3252-.3672,.8013-.3672,1.4282Z"/><path d="M158.6141,54.6426h-1.3535v-3.1797c0-.6372-.0254-1.0615-.0762-1.2725-.0508-.2114-.1455-.3735-.2842-.4873-.1387-.1133-.2959-.1699-.4717-.1699-.2266,0-.4316,.0732-.6152,.2202-.1836,.1465-.3125,.3491-.3867,.6069-.0742,.2583-.1113,.7451-.1113,1.46v2.8223h-1.3535v-6.2227h1.2539v.9082c.2227-.3516,.4736-.6152,.7529-.791s.5889-.2637,.9287-.2637c.3945,0,.7275,.1025,.999,.3081,.2715,.2051,.459,.4692,.5625,.7915,.1035,.3228,.1553,.7891,.1553,1.3989v3.8706Z"/><path d="M162.95,52.668l1.3418,.2754c-.1807,.625-.46,1.0889-.8389,1.3916-.3799,.3027-.8408,.4541-1.3848,.4541-.7549,0-1.3379-.2529-1.748-.7578-.4854-.5869-.7275-1.4082-.7275-2.4648,0-1.041,.2441-1.8745,.7324-2.5005,.4141-.5283,.9492-.7925,1.6055-.7925,.7305,0,1.3027,.27,1.7168,.8101,.4766,.6182,.7148,1.5298,.7148,2.7339l-.0059,.1885h-3.3809c.0078,.4941,.1182,.876,.332,1.1465,.2129,.2705,.4707,.4062,.7725,.4062,.4346,0,.7246-.2969,.8701-.8906Zm.0703-1.6699c-.0117-.4863-.1152-.8521-.3105-1.0972s-.4277-.3677-.6973-.3677c-.2852,0-.5254,.1274-.7207,.3823-.1992,.2588-.2969,.6196-.293,1.0825h2.0215Z"/><path d="M164.7371,54.7891l1.7461-8.8828h1.0137l-1.7646,8.8828h-.9951Z"/><path d="M172.7117,51.4844l1.377,.5332c-.2148,.9609-.5723,1.6631-1.0723,2.1064s-1.1152,.665-1.8457,.665c-.918,0-1.6621-.3535-2.2324-1.0605-.6562-.8164-.9844-1.918-.9844-3.3047,0-1.4648,.3301-2.6113,.9912-3.4395,.5742-.7188,1.3467-1.0781,2.3164-1.0781,.79,0,1.4502,.2695,1.9824,.8086,.3789,.3828,.6572,.9512,.833,1.7051l-1.4062,.4102c-.0898-.4648-.2695-.8213-.5371-1.0693-.2686-.248-.584-.3721-.9482-.3721-.5205,0-.9453,.2266-1.2734,.6797-.3291,.4531-.4932,1.2012-.4932,2.2441,0,1.082,.1602,1.8516,.4805,2.3086s.7363,.6855,1.248,.6855c.375,0,.6992-.1455,.9727-.4365s.4707-.7529,.5918-1.3857Z"/><path d="M174.9793,51.4434c0-.6108,.1211-1.1665,.3633-1.667,.2422-.501,.5586-.877,.9492-1.127,.3906-.251,.8301-.376,1.3184-.376,.8203,0,1.4648,.3218,1.9336,.9658,.4688,.6436,.7031,1.396,.7031,2.2568,0,.6416-.1221,1.2207-.3662,1.7373s-.5645,.9053-.9609,1.165-.8311,.3906-1.3037,.3906c-.7578,0-1.3867-.29-1.8867-.8691s-.75-1.4043-.75-2.4766Zm1.3828,.0879c0,.6309,.123,1.1074,.3701,1.4307,.2461,.3232,.5439,.4854,.8926,.4854,.3408,0,.6318-.1631,.875-.4883,.2422-.3252,.3643-.8047,.3643-1.4395,0-.6191-.124-1.0913-.3701-1.4165-.2471-.3252-.542-.4878-.8867-.4878-.3408,0-.6338,.1626-.8779,.4878-.2451,.3252-.3672,.8013-.3672,1.4282Z"/><path d="M181.2019,48.4199h1.2422v.8496c.2227-.332,.4668-.5811,.7324-.7471s.5527-.249,.8613-.249c.3281,0,.6123,.082,.8525,.2461s.4365,.4121,.5889,.7441c.2266-.332,.4697-.5801,.7295-.7441s.5361-.2461,.8291-.2461c.3477,0,.6475,.083,.8994,.2495,.252,.166,.4434,.4033,.5742,.7124,.1309,.3086,.1963,.7837,.1963,1.4248v3.9824h-1.3535v-3.5605c0-.6221-.0547-1.0356-.1641-1.2407-.1094-.2056-.293-.3081-.5508-.3081-.3008,0-.543,.1436-.7266,.4312s-.2754,.8496-.2754,1.686v2.9922h-1.3535v-3.4141c0-.6768-.0371-1.1128-.1113-1.3081-.0977-.2583-.2949-.3872-.5918-.3872-.1992,0-.3828,.0664-.5508,.1997-.168,.1328-.2891,.3271-.3633,.5835-.0742,.2559-.1113,.6895-.1113,1.2988v3.0273h-1.3535v-6.2227Z"/><path d="M190.0555,47.5762v-1.5234h1.3535v1.5234h-1.3535Zm0,7.0664v-6.2227h1.3535v6.2227h-1.3535Z"/><path d="M195.1238,48.4199v1.3125h-.9199v2.5117c0,.5439,.0137,.8584,.041,.9443,.0547,.1572,.166,.2354,.334,.2354,.125,0,.3047-.0527,.5391-.1582l.1172,1.2773c-.3125,.1641-.666,.2461-1.0605,.2461-.3438,0-.6191-.082-.8262-.2471-.207-.1641-.3457-.4004-.416-.709-.0547-.2275-.082-.6885-.082-1.3848v-2.7158h-.6211v-1.3125h.6211v-1.2363l1.3535-.9609v2.1973h.9199Z"/><path d="M197.075,50.3125l-1.2246-.2695c.1484-.6289,.3936-1.0811,.7354-1.3564s.833-.4131,1.4736-.4131c.5703,0,1.0059,.0801,1.3066,.2407,.3008,.1602,.5156,.3779,.6445,.6538,.1289,.2754,.1934,.7769,.1934,1.5039l-.0117,1.9238c0,.5391,.0215,.9414,.0645,1.2051s.123,.5449,.2402,.8418h-1.3359l-.1758-.6797c-.2305,.2734-.4775,.4795-.7412,.6182s-.5439,.208-.8408,.208c-.4961,0-.9023-.167-1.2188-.502-.3164-.334-.4746-.7793-.4746-1.335,0-.3516,.0645-.6592,.1934-.9209s.3105-.4717,.5449-.6279,.6094-.2949,1.125-.4165c.625-.1445,1.0605-.2798,1.3066-.4048,0-.3457-.0244-.5723-.0732-.6807-.0488-.1079-.1387-.1963-.2695-.2651s-.3154-.103-.5537-.103c-.2422,0-.4326,.0547-.5713,.1641s-.251,.3145-.3369,.6152Zm1.8047,1.3418c-.1719,.0703-.4395,.1523-.8027,.2471-.418,.1094-.6914,.2305-.8203,.3643-.1289,.1328-.1934,.3057-.1934,.5166,0,.2393,.0713,.4404,.2139,.6025,.1426,.1631,.3213,.2441,.5361,.2441,.1914,0,.3809-.0654,.5684-.1973,.1875-.1309,.3174-.2871,.3896-.4668,.0723-.1807,.1084-.5078,.1084-.9814v-.3291Z"/><path d="M203.8719,48.4199v1.3125h-.9199v2.5117c0,.5439,.0137,.8584,.041,.9443,.0547,.1572,.166,.2354,.334,.2354,.125,0,.3047-.0527,.5391-.1582l.1172,1.2773c-.3125,.1641-.666,.2461-1.0605,.2461-.3438,0-.6191-.082-.8262-.2471-.207-.1641-.3457-.4004-.416-.709-.0547-.2275-.082-.6885-.082-1.3848v-2.7158h-.6211v-1.3125h.6211v-1.2363l1.3535-.9609v2.1973h.9199Z"/><path d="M204.4988,51.4434c0-.6108,.1211-1.1665,.3633-1.667,.2422-.501,.5586-.877,.9492-1.127,.3906-.251,.8301-.376,1.3184-.376,.8203,0,1.4648,.3218,1.9336,.9658,.4688,.6436,.7031,1.396,.7031,2.2568,0,.6416-.1221,1.2207-.3662,1.7373s-.5645,.9053-.9609,1.165-.8311,.3906-1.3037,.3906c-.7578,0-1.3867-.29-1.8867-.8691s-.75-1.4043-.75-2.4766Zm1.3828,.0879c0,.6309,.123,1.1074,.3701,1.4307,.2461,.3232,.5439,.4854,.8926,.4854,.3408,0,.6318-.1631,.875-.4883,.2422-.3252,.3643-.8047,.3643-1.4395,0-.6191-.124-1.0913-.3701-1.4165-.2471-.3252-.542-.4878-.8867-.4878-.3408,0-.6338,.1626-.8779,.4878-.2451,.3252-.3672,.8013-.3672,1.4282Z"/><path d="M218.2391,54.6426h-1.2539v-.9141c-.207,.3516-.4512,.6162-.7324,.7939s-.5703,.2666-.8672,.2666c-.5703,0-1.0674-.2852-1.4912-.8545s-.6357-1.3818-.6357-2.4385c0-1.0645,.2061-1.8677,.6201-2.4097,.4131-.542,.9219-.813,1.5264-.813,.2852,0,.5508,.0723,.7988,.2168,.2471,.1445,.4746,.3613,.6816,.6504v-3.0879h1.3535v8.5898Zm-3.5977-3.2471c0,.5645,.0479,.9844,.1426,1.2607,.0957,.2764,.2324,.4844,.4092,.623,.1777,.1396,.377,.209,.5996,.209,.2959,0,.5527-.1611,.7715-.4824,.2178-.3213,.3271-.8047,.3271-1.4512,0-.7168-.1064-1.2329-.3184-1.5483-.2129-.3154-.4824-.4731-.8096-.4731-.3115,0-.5771,.1548-.7949,.4644-.2188,.3096-.3271,.7759-.3271,1.3979Z"/><path d="M219.575,47.5762v-1.5234h1.3535v1.5234h-1.3535Zm0,7.0664v-6.2227h1.3535v6.2227h-1.3535Z"/><path d="M226.7352,54.6426v-3.6162l-2.5781-4.9736h1.6641l1.6543,3.3965,1.6328-3.3965h1.6348l-2.5898,4.9854v3.6045h-1.418Z"/><path d="M233.2977,54.6426v-3.6162l-2.5781-4.9736h1.6641l1.6543,3.3965,1.6328-3.3965h1.6348l-2.5898,4.9854v3.6045h-1.418Z"/><path d="M239.8602,54.6426v-3.6162l-2.5781-4.9736h1.6641l1.6543,3.3965,1.6328-3.3965h1.6348l-2.5898,4.9854v3.6045h-1.418Z"/><path d="M127.9305,66.3379l.7324-.0781c.0391,.3936,.1279,.7002,.2656,.9199,.1387,.2197,.3359,.3965,.5938,.5303,.2568,.1328,.5469,.2002,.8691,.2002,.4619,0,.8213-.1133,1.0762-.3389,.2559-.2256,.3838-.5186,.3838-.8799,0-.2109-.0469-.3955-.1396-.5527s-.2324-.2861-.4199-.3877c-.1865-.1006-.5918-.2422-1.2129-.4268-.5537-.1641-.9473-.3291-1.1816-.4951s-.417-.377-.5469-.6328c-.1309-.2549-.1953-.5439-.1953-.8662,0-.5801,.1865-1.0537,.5615-1.4209,.374-.3682,.8789-.5518,1.5137-.5518,.4355,0,.8174,.0859,1.1445,.2588,.3271,.1719,.5811,.4199,.7617,.7422s.2773,.7012,.291,1.1377l-.7471,.0684c-.0391-.4658-.1787-.8105-.418-1.0352s-.5752-.3369-1.0078-.3369c-.4395,0-.7754,.0986-1.0059,.2949-.2314,.1973-.3467,.4521-.3467,.7646,0,.2891,.084,.5137,.2539,.6738,.1689,.1592,.5498,.3203,1.1416,.4844,.5791,.1602,.9863,.2988,1.2207,.417,.3574,.1826,.6279,.4229,.8105,.7207s.2744,.6523,.2744,1.0654c0,.4102-.0967,.7832-.2881,1.1191-.1924,.3369-.4531,.5928-.7842,.7686-.3301,.1758-.7285,.2637-1.1934,.2637-.7266,0-1.3047-.2188-1.7363-.6543-.4307-.4365-.6553-1.0273-.6709-1.7725Z"/><path d="M136.4656,66.9727l.7422,.1123c-.124,.5527-.3477,.9707-.6719,1.252-.3232,.2822-.7246,.4229-1.2031,.4229-.6025,0-1.0898-.2285-1.4629-.6865-.3721-.457-.5586-1.1172-.5586-1.9795,0-.8955,.1875-1.5781,.5635-2.0488,.376-.4697,.8525-.7051,1.4287-.7051,.5498,0,1.0088,.2305,1.377,.6934,.3672,.4619,.5518,1.1309,.5518,2.0068l-.0049,.2344h-3.1738c.0293,.582,.1641,1.0215,.4053,1.3184,.2402,.2959,.5332,.4443,.8789,.4443,.54,0,.916-.3555,1.1279-1.0645Zm-2.3682-1.4209h2.373c-.0332-.4492-.1289-.7852-.2881-1.0059-.2314-.3223-.5264-.4834-.8838-.4834-.3223,0-.5977,.1338-.8252,.4023-.2285,.2686-.3535,.6309-.376,1.0869Z"/><path d="M138.1209,68.6426v-5.1855h.6494v.7861c.166-.3652,.3184-.6064,.4561-.7256,.1387-.1182,.2939-.1777,.4668-.1777,.2402,0,.4863,.0938,.7373,.2832l-.2441,.8154c-.1797-.127-.3535-.1904-.5225-.1904-.1533,0-.293,.0537-.4199,.1611s-.2168,.2568-.2686,.4492c-.0918,.335-.1367,.6914-.1367,1.0693v2.7148h-.7178Z"/><path d="M142.0379,68.6426l-1.6172-5.1855h.7617l.915,3.1055c.1045,.3516,.1953,.6992,.2734,1.0449,.0625-.2734,.1504-.6025,.2646-.9863l.9492-3.1641h.7422l-1.6182,5.1855h-.6709Z"/><path d="M144.9519,62.4951v-1.0107h.7178v1.0107h-.7178Zm0,6.1475v-5.1855h.7178v5.1855h-.7178Z"/><path d="M146.4021,68.6426v-.7129l2.7119-3.7891c-.3096,.0195-.582,.0293-.8164,.0293h-1.7344v-.7129h3.4814v.5811l-2.3096,3.291-.4453,.6006c.3223-.0293,.625-.0439,.9082-.0439h1.9688v.7568h-3.7646Z"/><path d="M150.8748,62.4951v-1.0107h.7178v1.0107h-.7178Zm0,6.1475v-5.1855h.7178v5.1855h-.7178Z"/><path d="M152.4227,66.0498c0-.8955,.1875-1.5713,.5635-2.0264,.376-.4561,.8525-.6836,1.4287-.6836,.5664,0,1.04,.2275,1.4209,.6836,.3809,.4551,.5713,1.1133,.5713,1.9727,0,.9307-.1875,1.624-.5615,2.0801-.375,.4551-.8516,.6836-1.4307,.6836-.5703,0-1.0439-.2285-1.4238-.6865-.3789-.457-.5684-1.1318-.5684-2.0234Zm.7373-.0029c0,.6719,.1221,1.1709,.3662,1.499,.2441,.3271,.5469,.4912,.9082,.4912,.3379,0,.6289-.166,.8711-.4961,.2432-.3311,.3643-.8291,.3643-1.4941,0-.668-.1221-1.166-.3662-1.4932-.2441-.3281-.5469-.4912-.9082-.4912-.3418,0-.6338,.1641-.874,.4932-.2412,.3291-.3613,.8262-.3613,1.4912Z"/><path d="M162.2908,68.6426v-.6543c-.1309,.25-.2979,.4414-.5029,.5732s-.4268,.1982-.6641,.1982c-.502,0-.9355-.2373-1.3018-.7109s-.5488-1.1396-.5488-1.999c0-.5898,.0811-1.0889,.2432-1.499,.1631-.4102,.3799-.7148,.6514-.9131,.2715-.1992,.5723-.2979,.9043-.2979,.2373,0,.457,.0625,.6602,.1875,.2031,.126,.3711,.3008,.5049,.5254v-2.5684h.7275v7.1582h-.6738Zm-2.2803-2.5879c0,.6699,.1162,1.168,.3486,1.4941,.2334,.3252,.5049,.4883,.8145,.4883,.3057,0,.5713-.1562,.7959-.4688s.3369-.7852,.3369-1.416c0-.7266-.1123-1.2559-.3369-1.5898-.2246-.333-.5078-.5-.8506-.5-.3027,0-.5635,.1602-.7812,.4805-.2188,.3213-.3271,.8242-.3271,1.5117Z"/><path d="M164.0975,62.4951v-1.0107h.7178v1.0107h-.7178Zm0,6.1475v-5.1855h.7178v5.1855h-.7178Z"/><path d="M170.9529,68.6426v-.6543c-.1309,.25-.2979,.4414-.5029,.5732s-.4268,.1982-.6641,.1982c-.502,0-.9355-.2373-1.3018-.7109s-.5488-1.1396-.5488-1.999c0-.5898,.0811-1.0889,.2432-1.499,.1631-.4102,.3799-.7148,.6514-.9131,.2715-.1992,.5723-.2979,.9043-.2979,.2373,0,.457,.0625,.6602,.1875,.2031,.126,.3711,.3008,.5049,.5254v-2.5684h.7275v7.1582h-.6738Zm-2.2803-2.5879c0,.6699,.1162,1.168,.3486,1.4941,.2334,.3252,.5049,.4883,.8145,.4883,.3057,0,.5713-.1562,.7959-.4688s.3369-.7852,.3369-1.416c0-.7266-.1123-1.2559-.3369-1.5898-.2246-.333-.5078-.5-.8506-.5-.3027,0-.5635,.1602-.7812,.4805-.2188,.3213-.3271,.8242-.3271,1.5117Z"/><path d="M172.7596,62.4951v-1.0107h.7178v1.0107h-.7178Zm0,6.1475v-5.1855h.7178v5.1855h-.7178Z"/><path d="M174.3025,67.0898l.7178-.1367c.042,.3662,.1572,.6387,.3457,.8164,.1885,.1787,.4385,.2676,.75,.2676s.5527-.0771,.7236-.2324c.1699-.1543,.2559-.3506,.2559-.5879,0-.2051-.0732-.3652-.2197-.4785-.1016-.0781-.3457-.1758-.7324-.293-.5605-.1729-.9346-.3193-1.123-.4395-.1895-.1211-.3359-.2822-.4395-.4834-.1045-.2021-.1562-.4316-.1562-.6885,0-.4434,.1416-.8027,.4248-1.0791,.2832-.2773,.6748-.415,1.1768-.415,.3154,0,.5928,.0566,.832,.1709,.2393,.1133,.4229,.2666,.5498,.459,.127,.1914,.2148,.4668,.2637,.8252l-.7031,.1172c-.0654-.5664-.373-.8496-.9229-.8496-.3125,0-.5459,.0625-.6982,.1865-.1533,.125-.2295,.2852-.2295,.4795,0,.1914,.0732,.3418,.2197,.4521,.0879,.0645,.3486,.1689,.7832,.3115,.5957,.1895,.9814,.3398,1.1572,.4521,.1748,.1123,.3115,.2656,.4082,.46,.0977,.1943,.1465,.4248,.1465,.6924,0,.4951-.1572,.8965-.4717,1.2031-.3135,.3066-.7432,.46-1.2861,.46-1.0195,0-1.6104-.5566-1.7725-1.6699Z"/><path d="M180.284,67.8564l.0977,.7764c-.1992,.0518-.3779,.0781-.5371,.0781-.251,0-.4531-.0498-.6055-.1494-.1533-.0986-.2578-.2354-.3154-.4072-.0566-.1729-.085-.5166-.085-1.0303v-2.9834h-.5273v-.6836h.5273v-1.2842l.7178-.5273v1.8115h.7275v.6836h-.7275v3.0322c0,.2793,.0205,.46,.0635,.542,.0615,.1172,.1768,.1758,.3467,.1758,.0811,0,.1865-.0117,.3174-.0342Z"/><path d="M180.9627,68.6426v-5.1855h.6494v.7861c.166-.3652,.3184-.6064,.4561-.7256,.1387-.1182,.2939-.1777,.4668-.1777,.2402,0,.4863,.0938,.7373,.2832l-.2441,.8154c-.1797-.127-.3535-.1904-.5225-.1904-.1533,0-.293,.0537-.4199,.1611s-.2168,.2568-.2686,.4492c-.0918,.335-.1367,.6914-.1367,1.0693v2.7148h-.7178Z"/><path d="M183.6922,62.4951v-1.0107h.7178v1.0107h-.7178Zm0,6.1475v-5.1855h.7178v5.1855h-.7178Z"/><path d="M186.1727,68.6426h-.6689v-7.1582h.7227v2.5537c.1523-.2344,.3262-.4092,.5195-.5254,.1943-.1152,.4092-.1729,.6475-.1729,.332,0,.6338,.0986,.9053,.2979,.2725,.1982,.4893,.499,.6523,.9033,.1621,.4033,.2441,.8936,.2441,1.4697,0,.8789-.1846,1.5566-.5527,2.0332-.3682,.4775-.7988,.7158-1.291,.7158-.248,0-.4707-.0645-.668-.1934-.1973-.1279-.3672-.3193-.5107-.5732v.6494Zm-.0107-2.6318c0,.5371,.0488,.9385,.1465,1.2061,.0977,.2666,.2363,.4697,.416,.6104,.1797,.1396,.3789,.21,.5977,.21,.2969,0,.5605-.167,.79-.501,.2305-.333,.3457-.832,.3457-1.4961,0-.6807-.1113-1.1807-.333-1.499-.2217-.3193-.4941-.4785-.8174-.4785-.2969,0-.5625,.167-.7959,.5-.2334,.334-.3496,.8164-.3496,1.4482Z"/><path d="M192.8572,68.6426v-.7617c-.166,.293-.3613,.5127-.5859,.6592s-.4785,.2197-.7617,.2197c-.3359,0-.6221-.0908-.8594-.2715-.2383-.1807-.3965-.4092-.4766-.6855-.0791-.2773-.1191-.6543-.1191-1.1328v-3.2129h.7178v2.876c0,.5332,.0264,.8906,.0801,1.0713s.1533,.3262,.2979,.4346c.1455,.1094,.3105,.1641,.4961,.1641,.3447,0,.6279-.1416,.8496-.4248,.1885-.2441,.2832-.6924,.2832-1.3428v-2.7783h.7227v5.1855h-.6445Z"/><path d="M194.2635,68.6426v-.7129l2.7119-3.7891c-.3096,.0195-.582,.0293-.8164,.0293h-1.7344v-.7129h3.4814v.5811l-2.3096,3.291-.4453,.6006c.3223-.0293,.625-.0439,.9082-.0439h1.9688v.7568h-3.7646Z"/><path d="M198.7361,62.4951v-1.0107h.7178v1.0107h-.7178Zm0,6.1475v-5.1855h.7178v5.1855h-.7178Z"/><path d="M200.284,66.0498c0-.8955,.1875-1.5713,.5635-2.0264,.376-.4561,.8525-.6836,1.4287-.6836,.5664,0,1.04,.2275,1.4209,.6836,.3809,.4551,.5713,1.1133,.5713,1.9727,0,.9307-.1875,1.624-.5615,2.0801-.375,.4551-.8516,.6836-1.4307,.6836-.5703,0-1.0439-.2285-1.4238-.6865-.3789-.457-.5684-1.1318-.5684-2.0234Zm.7373-.0029c0,.6719,.1221,1.1709,.3662,1.499,.2441,.3271,.5469,.4912,.9082,.4912,.3379,0,.6289-.166,.8711-.4961,.2432-.3311,.3643-.8291,.3643-1.4941,0-.668-.1221-1.166-.3662-1.4932-.2441-.3281-.5469-.4912-.9082-.4912-.3418,0-.6338,.1641-.874,.4932-.2412,.3291-.3613,.8262-.3613,1.4912Z"/><path d="M205.118,68.6426v-5.1855h.6494v.7324c.1553-.2852,.3467-.498,.5723-.6387s.4854-.2109,.7773-.2109c.2275,0,.4385,.0449,.6318,.1338,.1934,.0898,.3486,.207,.4678,.3516,.1182,.1455,.207,.333,.2656,.5645,.0586,.2305,.0879,.5859,.0879,1.0645v3.1885h-.7178v-3.1582c0-.3809-.0332-.6592-.0977-.8359-.0654-.1758-.167-.3115-.3057-.4082-.1377-.0957-.2988-.1436-.4805-.1436-.3457,0-.6201,.1289-.8252,.3857-.2051,.2578-.3076,.6992-.3076,1.3252v2.835h-.7178Z"/><path d="M212.5838,66.9727l.7422,.1123c-.124,.5527-.3477,.9707-.6719,1.252-.3232,.2822-.7246,.4229-1.2031,.4229-.6025,0-1.0898-.2285-1.4629-.6865-.3721-.457-.5586-1.1172-.5586-1.9795,0-.8955,.1875-1.5781,.5635-2.0488,.376-.4697,.8525-.7051,1.4287-.7051,.5498,0,1.0088,.2305,1.377,.6934,.3672,.4619,.5518,1.1309,.5518,2.0068l-.0049,.2344h-3.1738c.0293,.582,.1641,1.0215,.4053,1.3184,.2402,.2959,.5332,.4443,.8789,.4443,.54,0,.916-.3555,1.1279-1.0645Zm-2.3682-1.4209h2.373c-.0332-.4492-.1289-.7852-.2881-1.0059-.2314-.3223-.5264-.4834-.8838-.4834-.3223,0-.5977,.1338-.8252,.4023-.2285,.2686-.3535,.6309-.376,1.0869Z"/><path d="M219.2879,68.0029c-.2412,.25-.4922,.4395-.752,.5664-.2607,.127-.5312,.1904-.8105,.1904-.4434,0-.7959-.1338-1.0596-.4004-.2637-.2676-.3955-.627-.3955-1.0791,0-.2998,.0615-.5654,.1855-.7959,.123-.2314,.293-.4121,.5078-.542,.2148-.1309,.54-.2266,.9766-.2881,.5859-.0859,1.0156-.1885,1.2891-.3076l.0049-.2246c0-.3555-.0635-.6045-.1904-.7471-.1797-.209-.4541-.3125-.8252-.3125-.3359,0-.5859,.0693-.752,.208-.166,.1396-.2881,.4004-.3662,.7832l-.708-.1172c.1006-.5566,.3047-.9619,.6123-1.2158s.748-.3809,1.3213-.3809c.4453,0,.7959,.084,1.0498,.251,.2539,.168,.4141,.375,.4805,.623,.0674,.2471,.1006,.6084,.1006,1.084v1.1719c0,.8203,.0156,1.3369,.0459,1.5498,.0312,.2139,.0918,.4209,.1836,.623h-.752c-.0752-.1797-.124-.3926-.1465-.6396Zm-.0586-1.9629c-.2637,.1299-.6562,.2402-1.1768,.332-.3027,.0518-.5146,.1113-.6348,.1777-.1211,.0674-.2139,.1611-.2812,.2832-.0664,.1221-.0996,.2627-.0996,.4229,0,.2471,.0762,.4453,.2295,.5928,.1523,.1484,.3643,.2227,.6348,.2227,.2568,0,.4902-.0674,.7002-.2002,.21-.1338,.3672-.3115,.4717-.5352,.1035-.2227,.1562-.5479,.1562-.9736v-.3223Z"/><path d="M221.0555,68.6426v-7.1582h.7178v7.1582h-.7178Z"/><path d="M222.9012,62.4951v-1.0107h.7178v1.0107h-.7178Zm0,6.1475v-5.1855h.7178v5.1855h-.7178Z"/><path d="M224.7273,68.6426v-5.1855h.6445v.7227c.1426-.2686,.3262-.4756,.5508-.6211,.2236-.1465,.4697-.2188,.7363-.2188,.2988,0,.5508,.0771,.7578,.2305,.2061,.1543,.3535,.3779,.4414,.6729,.1689-.3008,.3643-.5273,.585-.6777s.4648-.2256,.7324-.2256c.4082,0,.7305,.1377,.9658,.415,.2344,.2764,.3525,.7188,.3525,1.3281v3.5596h-.7178v-3.2705c0-.3711-.0273-.6348-.0811-.7891-.0547-.1553-.1416-.2744-.2627-.3594s-.2568-.127-.4072-.127c-.3115,0-.5654,.123-.7617,.3691s-.2939,.6328-.2939,1.1602v3.0166h-.7178v-3.373c0-.4297-.0664-.7334-.1982-.9092s-.3135-.2637-.5439-.2637c-.3291,0-.5889,.1328-.7793,.3984s-.2852,.75-.2852,1.4541v2.6934h-.7178Z"/><path d="M234.4588,66.9727l.7422,.1123c-.124,.5527-.3477,.9707-.6719,1.252-.3232,.2822-.7246,.4229-1.2031,.4229-.6025,0-1.0898-.2285-1.4629-.6865-.3721-.457-.5586-1.1172-.5586-1.9795,0-.8955,.1875-1.5781,.5635-2.0488,.376-.4697,.8525-.7051,1.4287-.7051,.5498,0,1.0088,.2305,1.377,.6934,.3672,.4619,.5518,1.1309,.5518,2.0068l-.0049,.2344h-3.1738c.0293,.582,.1641,1.0215,.4053,1.3184,.2402,.2959,.5332,.4443,.8789,.4443,.54,0,.916-.3555,1.1279-1.0645Zm-2.3682-1.4209h2.373c-.0332-.4492-.1289-.7852-.2881-1.0059-.2314-.3223-.5264-.4834-.8838-.4834-.3223,0-.5977,.1338-.8252,.4023-.2285,.2686-.3535,.6309-.376,1.0869Z"/><path d="M236.1141,68.6426v-5.1855h.6494v.7324c.1553-.2852,.3467-.498,.5723-.6387s.4854-.2109,.7773-.2109c.2275,0,.4385,.0449,.6318,.1338,.1934,.0898,.3486,.207,.4678,.3516,.1182,.1455,.207,.333,.2656,.5645,.0586,.2305,.0879,.5859,.0879,1.0645v3.1885h-.7178v-3.1582c0-.3809-.0332-.6592-.0977-.8359-.0654-.1758-.167-.3115-.3057-.4082-.1377-.0957-.2988-.1436-.4805-.1436-.3457,0-.6201,.1289-.8252,.3857-.2051,.2578-.3076,.6992-.3076,1.3252v2.835h-.7178Z"/><path d="M242.2762,67.8564l.0977,.7764c-.1992,.0518-.3779,.0781-.5371,.0781-.251,0-.4531-.0498-.6055-.1494-.1533-.0986-.2578-.2354-.3154-.4072-.0566-.1729-.085-.5166-.085-1.0303v-2.9834h-.5273v-.6836h.5273v-1.2842l.7178-.5273v1.8115h.7275v.6836h-.7275v3.0322c0,.2793,.0205,.46,.0635,.542,.0615,.1172,.1768,.1758,.3467,.1758,.0811,0,.1865-.0117,.3174-.0342Z"/><path d="M245.7234,68.0029c-.2412,.25-.4922,.4395-.752,.5664-.2607,.127-.5312,.1904-.8105,.1904-.4434,0-.7959-.1338-1.0596-.4004-.2637-.2676-.3955-.627-.3955-1.0791,0-.2998,.0615-.5654,.1855-.7959,.123-.2314,.293-.4121,.5078-.542,.2148-.1309,.54-.2266,.9766-.2881,.5859-.0859,1.0156-.1885,1.2891-.3076l.0049-.2246c0-.3555-.0635-.6045-.1904-.7471-.1797-.209-.4541-.3125-.8252-.3125-.3359,0-.5859,.0693-.752,.208-.166,.1396-.2881,.4004-.3662,.7832l-.708-.1172c.1006-.5566,.3047-.9619,.6123-1.2158s.748-.3809,1.3213-.3809c.4453,0,.7959,.084,1.0498,.251,.2539,.168,.4141,.375,.4805,.623,.0674,.2471,.1006,.6084,.1006,1.084v1.1719c0,.8203,.0156,1.3369,.0459,1.5498,.0312,.2139,.0918,.4209,.1836,.623h-.752c-.0752-.1797-.124-.3926-.1465-.6396Zm-.0586-1.9629c-.2637,.1299-.6562,.2402-1.1768,.332-.3027,.0518-.5146,.1113-.6348,.1777-.1211,.0674-.2139,.1611-.2812,.2832-.0664,.1221-.0996,.2627-.0996,.4229,0,.2471,.0762,.4453,.2295,.5928,.1523,.1484,.3643,.2227,.6348,.2227,.2568,0,.4902-.0674,.7002-.2002,.21-.1338,.3672-.3115,.4717-.5352,.1035-.2227,.1562-.5479,.1562-.9736v-.3223Z"/><path d="M247.5154,68.6426v-5.1855h.6494v.7861c.166-.3652,.3184-.6064,.4561-.7256,.1387-.1182,.2939-.1777,.4668-.1777,.2402,0,.4863,.0938,.7373,.2832l-.2441,.8154c-.1797-.127-.3535-.1904-.5225-.1904-.1533,0-.293,.0537-.4199,.1611s-.2168,.2568-.2686,.4492c-.0918,.335-.1367,.6914-.1367,1.0693v2.7148h-.7178Z"/><path d="M253.1502,66.9727l.7422,.1123c-.124,.5527-.3477,.9707-.6719,1.252-.3232,.2822-.7246,.4229-1.2031,.4229-.6025,0-1.0898-.2285-1.4629-.6865-.3721-.457-.5586-1.1172-.5586-1.9795,0-.8955,.1875-1.5781,.5635-2.0488,.376-.4697,.8525-.7051,1.4287-.7051,.5498,0,1.0088,.2305,1.377,.6934,.3672,.4619,.5518,1.1309,.5518,2.0068l-.0049,.2344h-3.1738c.0293,.582,.1641,1.0215,.4053,1.3184,.2402,.2959,.5332,.4443,.8789,.4443,.54,0,.916-.3555,1.1279-1.0645Zm-2.3682-1.4209h2.373c-.0332-.4492-.1289-.7852-.2881-1.0059-.2314-.3223-.5264-.4834-.8838-.4834-.3223,0-.5977,.1338-.8252,.4023-.2285,.2686-.3535,.6309-.376,1.0869Z"/></g><path d="M98.7126,.5V98.7126H.5V.5H98.7126M99.2126,0H0V99.2126H99.2126V0h0Z"/><polygon points="99.2126 .3536 98.8592 0 49.6064 49.2527 .3536 0 0 .3534 49.2529 49.6063 0 98.8592 .3536 99.2126 49.6064 49.9598 98.8592 99.2126 99.2126 98.8589 49.9599 49.6063 99.2126 .3536"/></svg>